<?xml version="1.0" encoding="UTF-8"?>
<svg id="Layer_1" data-name="Layer 1" xmlns="http://www.w3.org/2000/svg" viewBox="0 0 415.58 388">
  <defs>
    <style>
      .cls-1 {
        fill: #de3c01;
      }
    </style>
  </defs>
  <path class="cls-1" d="M202.79,0h1v1.5h1c.05,1.74-.32,9.82,0,10.5-.83.3-.53,2.01-.5,2.75.08,1.93.06,3.36.5,5,.31,1.16.21,1.29,0,2s-.35,2.15,1,1.75c.05,1.84-.33,10.8,0,11.5l-.5.25v4.75h1c.02.83-.04,1.68,0,2.5h-1v5h1.5c.01.33,0,.67,0,1h-1v2.5h1c.03,1.89-.32,11.82,0,12.5-.86.33-.49,1.97-.5,2.75-.02,2.74.18,5.07.5,7.5.11.86-.08,1.86,0,2.75l2-1.25c.02-.58-.03-1.17,0-1.75.05-.98-.11-2.06,0-3l2-2.25.5-1c-1.34-1.15.35-2.57,0-4-.08-.34-.49-.22-.5-.25-.08-.17-.05-1.16,0-1.5l2.5-2.75c.25-.86-.8-1.7-.5-3,.16-.71.62.08,0-1.25-.33-.7.33-2.2.5-3h1c-.27-.8.47-1.05.5-1.25.13-.76-.16-1.79,0-2.5s.63.08,0-1.25c-.38-.81.32-2.64.5-3.5h1v-.75l-.5-.25c.13-.28-.1-1.06,0-1.5h.75l.75-.75v-2l-.5-.25c.1-.22.36-1.94.5-2.5h1v-.75l-.5-.25c.13-.28-.1-1.06,0-1.5h1l.5-1.25-.5-1.25c.05-.1.4-1.58.5-2h1.25l.25.5c-.25.53.05,4.81,0,6h-1v1c.04.32-.08.78,0,1l-.5.25v.5l.5.25c-.17.36.03,2.26,0,3h-1c.38,1.68-.87,3.21-.5,4.75.08.34.49.22.5.25.12.25.03,1.95,0,2.5l-1.5,2.75c.24,1.55-1.24,4.09-1,5.5.17,1.01-.04,1.6.5,2.75.13.28-.03,1.44,0,2l-1.5.25.5,1.75h1c-.02.33.03.67,0,1l-1.25,1c-.01.68-.05,2.54-.25,3.25-.08.27-.92.73-1,1-.18.65.12,1.75,0,2.5l1,2.25c-.05.31.01.67,0,1h-1v2.75l.5.25c-.16.35.02,2.28,0,3h-1c-.04,1.33.05,2.68,0,4-.19,4.6-1.16,9.05-1.5,13.25-.15,1.86.11,3.87,0,5.75.7.01,1.31.19,1.75-.5,1.41-2.18.41-4.4.75-6.75.29-2,1.06-5.31,1.5-7.5.94-4.73,1.06-9.78,2-14.5s.63-10.13,1.5-15c.38-2.13,1.91-5.21,2.5-7.5,1.13-4.4,2.56-8.68,3.5-13,.04-.19.94-1.28,1-1.5.44-1.62.64-3.35,1-5,.15-.68,1.52-1.75,1-3l1-.75c-.09,1.05.13,2.23,0,3.25-.43,3.3-1.68,7.7-2.5,11-1.09,4.4-1.89,9.03-3,13.5-1.19,4.79-1.77,10.05-3,15-.45,1.81-.55,3.69-1,5.5-.05.2-.47.31-.5.5-.12.65-.04,1.77,0,2.5.04.81.42,1.43,1,.75-.38-1.51.49-2.16,1-3.25.77-1.65,1.23-3.85,2-5.5,1.25-2.67,2.29-6.16,3.5-9.25l1.5-1.25c.55-4.2,4.48-9.5,4.99-13.25.07-.48-.07-1.02,0-1.5l2-2.75c.21-1.7,1.24-3.07,1.5-4.75.07-.48-.07-1.02,0-1.5l1.5-1.25c.02-2.02,2.11-3.61,2-5.75l1,1.5c-.11.25.03,1.04,0,1.5h-1v1.5c-.02.83.03,1.67,0,2.5h-1v1c-.02.83.03,1.67,0,2.5h-1v1c-.03.83.05,1.68,0,2.5l-1.5,1.75c-1.24,6.23-2.79,12.31-4.5,18.5-.35,1.28-.85,2.29-1,3.75-.05.49.05,1.01,0,1.5h-1c.27.82-.42.98-.5,1.25-.36,1.2.47,1.18.5,1.25.62,1.31-.85,2.56-1,3.25-.48,2.21-1.04,3.8-1.5,6-.7,3.37-2.09,6.77-3,10-.29,1.04-.84,2.32-1,3-.19.81-.38,2.75,1,2.25-.53-1.26.89-1.83,1-2.25.87-3.21,2.64-5.4,3.5-8.5.24-.87,2.74-4.11,3-5,1.04-3.61,3.24-6.83,4.99-10,2.85-5.15,5.35-10.51,7.99-15.5,2.37-4.46,4.73-8.28,6.99-12.5.54-1.01.94-2.52,1.5-3.5.47-.83,1-1.64,1.75-2.25.43.31.35,1.81.25,2.25-.05.24-.77,1.81-1,2.5-.84,2.52-1.8,4.96-2.5,7.5-.08.27-.92.73-1,1-.9,3.29-1.95,5.36-3,8.5-.39,1.17-.14,1.45-1,3-1.05,1.9-1.71,4.8-2.5,7-1.53,4.3-3.3,8.65-4.5,13-.04.15-1.29,1.72-1.5,2.5-.24.89-.26,2.15,1,1.75-.17-1.22,1.05-1.95,1.5-2.75,3.4-5.97,4.44-13.92,7.99-20,.08-.13.42-1,.5-1.25l3-2.5c.17,1.22-.21,2.41-1,3.25-.23.81.48.7.5.75.07.18.02.7,0,1l-1.5.75c.16,1.09-.31,1.79-.5,2.75-.31,1.55-.57,2.75-1,4.25-.08.28-.92.73-1,1-.36,1.32-.62,3.12-1,4.5-.41,1.5-1.64,3.51-2,5.25h-1v1c.07,2.76-2.1,5.81-2.5,8.25-.11.68.07,1.53,0,2.25l1-1h1c1.62-5.7,4.99-11.41,7.49-16.75,1.63-3.49,3.36-8.01,4.99-11.5s3.27-6.81,4.99-10.5c.22-.48.96-1.88,1-2,1.7-5.76,4.6-10.73,6.49-15.75h1.5l-.5,1.75.5.75c-.16.43-.29.94-.5,1.5h-1v.75l.5.25c-.08.27.08.73,0,1h-1c-.09.09.11.48,0,.75-.63,1.52-1.07,3.15-1.5,4.75-.77,2.87-1.73,5.4-2.5,8.25-1.09,4.03-3.39,8.43-4.5,12.5-.44,1.63-1.17,5.54-2,6.75-.04.05-.88.33-1,.75-.4,1.39-1.32,3.41-1.5,4.5-.09.56-.03,1.39,0,2,.04.81.4,1.42,1,.75l1.5-3.75c1.52-.95.47-2.55,2-3.5l-.5-.75c-.26-1.04.47-.94.5-1h1v-1.5c.44-.86.5-1.34,1-2l.5-.5c.17-.41-.11-1.42,0-2h1v-1.5h1l2.5-6.5.5-2h1c.09-.09-.11-.48,0-.75.72-1.74,1.51-2.78,2-4.75.25-1,.18-1.98,1-3h1c0-.77.37-1.16.5-2,.05-.31-.06-.7,0-1h1c-.19-1.11.18-1.58,1-2.25l-.5-.75c-.22-.72.35-.92.5-1.5h1c-.19-1.11.18-1.58,1-2.25l-.5-.75c-.19-.67.3-.93.5-1.5l1.5-1.25c1.34-4,3.74-7.78,4.99-11.75.16-.52.32-.95.5-1.5h1c-.52-1.28.87-1.81,1-2.25.19-.65.37-1.58.5-2.25.06-.3-.05-.68,0-1h.75c.72-.91,1.59-1.89,1.75-3,.02-.16-.02-.34,0-.5h1v.75l.5.25c-.09.18.06.69,0,1-1.74-.12-1.52,1.77-2,2.75-.71,2.53-2.73,4.77-2.5,7.75h-1c.14,1.02-.33,1.96-1,2.75-.22.82.48.7.5.75.07.18.02.7,0,1l-1.5.75c-.23.81.48.7.5.75.07.18.02.7,0,1h-1l-1.5,3.75c-.22.82.48.7.5.75.07.18.02.7,0,1l-1.5.75c-.22.81.48.7.5.75.36.77-.33,1.42-.5,2h-1c.14,1.02-.33,1.96-1,2.75-.22.82.48.7.5.75.07.18.02.7,0,1l-1.5.75c-.23.81.48.7.5.75.07.18.02.7,0,1h-1l-.5,1.25.5.75c-.13.31-.34,1.03-.5,1.5l-2,2.75v2.25h-1c-.07.56.11,1.25,0,1.75-.08.35-1.74,1.88-.5,2.25-.36.83-.72,2.1-1,3h-1l-.5,1.25.5.75c-.12.25.11.89,0,1.25-.16.54-.82.35-1,2.25h-1v1c-.06,1.81-.7,2.57-1,4.5h-1l-.5,1.25.5.75c-.17.36.17,1.33-.5,2h-1c-.41,1.96-.92,4-2,5.75l.5,1.25h-1c.27.82-.42.99-.5,1.25-.12.41.12,1.07,0,1.5-.08.27-.92.73-1,1-.28,1.02.48,2.17-1,3l.5,2.25h-1.5c.01.75-.02,1.5,0,2.25.03,1.03-.36,1.45,1,1.25l-.25-1.5h1.25c-.31-1.19.58-1.85,1-2.75.77-1.65,1.23-3.85,2-5.5.37-.79,1.91-3.21,2-3.5.62-2.17,1.54-4.21,2-6.25.35-1.59,1.18-2.97,1.5-4.5h1v-1c.17-1.38.66-2.65,1-4l2.5-3.25c.7-2.29,1.92-4.33,2.5-6.75.19-.78.25-1.68.5-2.5h1c-.33-1.5,2.03-1.6,2.5-2.75.09-.21-.04-.51,0-.75.04-.22-.06-.41.25-.5h.75l.5-2h.75c.31-.09.21-.28.25-.5h.75c.86-.74,1.09-.95,1.25-2,.02-.16-.02-.34,0-.5h.75c.85-.78,1.5-1.25,1.25-2.5.03-.01.49-.47.5-.5h1v-2c.79.3,1.3-.47,1.5-1h1v-1l.5-2c1.03.26.94-.47,1-.5.16-.08.53.13.75,0,1.07-.61.55-1.35.75-2s.94-1.38,1-1.5c.84.14,1.55-.66,2-1.25,1.61-2.13,3.26-4.37,4.99-6.5.63-.78,1.29-.92,1-2.25.51.07.41-.22.5-.5l2.5-.25c-.75.4-.78,1.1-1,1.5-1.73,3.2-3.13,6.08-4.99,9-1.68,2.64-1.97,2.77-3,5.75-.14.4-.34.61-.5,1h-1v1.5l-1.5.75.5.75c-.28.43-.69,1.04-1,1.5h-1v1.5c-.28.43-.69,1.04-1,1.5h-1v1.5c-.05.04,0,.78-1,.5-.02.33.04.68,0,1h-1v1c-.75,2.14-2.3,4.58-3.5,6.75-.28.51-1.14,1.24-1.5,2-.27.57.18,1.02.75.75.27-.13,1.95-1.86,2.25-2.25.21-.27.79-1.73,1-2,3.4-4.48,8.41-8.26,10.99-13.25h1c2.13-4.34,6.78-7.69,8.99-12h1c2.98-4.8,7.2-9.83,10.99-14.25.33-.38,1.46-1.61,1.75-1.75.57-.27,1.02.18.75.75-.16.33-.92.73-1,1-.37,1.28-1.68,3.56-2.5,5-2.2,3.89-5.47,7.91-6.99,12.25h-1c-2.33,5.35-5.75,10.61-8.99,15.75-.96,1.52-1.99,3.41-3,5-.37.58-1.26.78-1,1.75l2-.5c-.03-1.09,1.36-2.21,2.25-3,2.36-2.1,6.5-4.59,6.74-8,1.37.35,1.48-.48,2.25-1,4.89-3.33,9.44-9.79,13.99-13,1.28-.9,2-2.43,2.75-3.25,4.04-4.44,8-7.68,12.49-11.5.71-.61.85-.97,2-.75l-3,3.75c-9.83,13.16-19.68,25.79-29.47,38.75h-1c-.29,1.49-2.51,3.71-4,4v1h-1v1h-1v1h-1v1c-.09.09-.51-.13-.75,0-1.12.62-2.55,2.92-3.75,3.75-.31,1.11,1.21.88,1.75.75.86-.2,5.06-3.32,5.99-4,1.27-.93,2.86-2.05,4-3,1.66-1.39,3.62-4.73,4.99-5.5.67-.37,2.46-2.01,3.75-3,.23,1.61-.64,3.01-1.5,4.25l.5,1c-1.7,1.58-3.28,3.23-4.5,5-.4.58-1.24.78-1,1.75,1.15.22,1.29-.14,2-.75,1.46-1.24,2.75-3.45,4.5-3.75v-1c2.72-.79,2.89-3.5,5.99-4l-1,2.5,2.75-1c.88-1.32,2.6-2.2,3.5-3,3.2-2.84,5.51-6.11,8.74-8v-1c3.2-1.35,5.2-5.23,7.74-7,5.3-3.71,10.89-10.44,15.23-15.25.58-.64,1.88-2.11,2.5-2.5.84-.53.96-.04,1.5.5.11.41-1.15,1.97-1.5,2.5-2.67,4.09-6.39,7.62-8.49,11.75h-1c-.3,1.84-2.85,3.03-3,5h-1c-.48,2.12-3.51,3.88-4,6h-1c-1.9,4.34-6.96,7.53-8.99,12h-1c-.67,1.58-2.37,3.91-3.5,5.25-.61.72-3.38,3.11-3.5,3.5-.1.33.05.85,0,1.25l2.75-1c1.82-2.15,3.93-3.42,5.99-5,.11-.08.29-.06.5,0l14.24-11.5c.87.98-2.38,3.54-3,4.25-4.63,5.28-9.78,10.57-13.49,16.25h-1v.75l-2,2.25c-.4,0-.96-.09-1.25,0-.31.09-3.78,3.43-4.5,4-3.19,2.56-6.9,5.2-9.99,8-1.31,1.18-2.46,2.55-3.75,3.75-.33,1.11,1.28.89,1.75.75,1.02-.3,3.4-3.08,4.5-4,4.67-3.92,10.77-7.65,14.24-12.5h1v-1h1v-1h1v-1c4.55-2.62,8.48-7.46,12.99-10v-1h1v-1c3.88-1.38,7.89-7.9,11.74-9,.37-.11,5.08-4.65,5.24-5h1v-2c.73-.1,3.09-1.45,3.5-2l.5,1c-.14.14-.5,2.45-2,2v1h-1c-5.22,8.19-14.35,15.07-19.98,23h-1v1h-1c-2.24,4.01-6.88,7.43-9.49,11.25-.4.58-1.24.78-1,1.75l6.24-2.5c9.63-5.76,19.2-11.23,28.97-16.5,1.19-.64,2.17-1.45,3.75-1.5v-1c2.01.25,1.95-1.27,3.25-2,.59-.33.78-1.29,1.75-1v-1c1.29-.2,2.18.28,2,1.75l-54.44,38.75.75,1c1.37-.83,2.97-1.91,4.5-2,16.2-8.63,31.94-16.91,47.95-25.5.62-.33,1.98-.66,2.5-1,.46-.31,1.19-1.41,1.5-1.5.47-.14,2.08-.36,1.75.75-.66.6-1.05,1.44-2,1.25v1c-7.91,5.39-15.84,11.51-24.23,17-1.5.98-4.35,3.27-5.74,3.5-.4.07-.92-.1-1.25,0-.25.07-.65.79-1,1-.5.3-1.03-.51-.75,1.5l-.75-1c-.79.38-1.38,1.07-2,1.5-2.22,1.54-8.99,5.78-11.49,6.5-.44.13-.97,1.52-2.25,1v1.5c1.4.27,2.13-.94,3.25-1.5,2.13-1.07,4.61-2.26,6.99-3.5,4.36-2.27,8.91-4.3,13.49-6.5,3.28-1.57,6.32-3.37,9.99-5l1.25-1.5c.37-.17.82-.86,2-.5h1v-1c1.01-.31,1.8-1.3,3-1h1v-1c.17-.01.35.03.5,0,.82-.15,1.15-.48,1.25-.5.51-.11,1.19.07,1.75,0-.01.33.03.67,0,1-.2.06-.51-.1-.75,0-.51.2-.78,1.34-1.75,1v1c-1.47.66-2.44,1.43-4,2-.19.07-.51-.1-.75,0-.38.16-1.67,1.43-2.25,1.75v.75c-.16.03-.34-.02-.5,0h-1v1c-.32.04-.67-.02-1,0v1c-.49.05-1.04-.08-1.5,0-.81.14-1.25.48-2,.5v1l-1.5.5v1c-1.12-.25-1.66.19-2.5.5-.19.07-.51-.1-.75,0-.38.16-1.67,1.43-2.25,1.75v.75c-.95.45-1.59.69-2.5,1-2.15.74-3.23,1.35-5.24,2.5-.39.22-.44.73-1.25.5v1.5c-.68.11-1.66-.16-2.25,0-.14.04-2.19,1.62-2.25,1.75-.1.25.07.58,0,.75-.26.61-.4.73-1,1-1.44.63-2.96,1.12-4.25,2l-1.75,2c1.05.19,1.81-.17,2.75-.5,1.27-.45,2.3-1.6,3.75-1.5v-1c1.82,0,3.27-.94,4.99-1.5,1.08-.35,2.19-.58,3.25-1l.25-.5c.18.07.7.02,1,0,.83-.07.86-.25,1.5-.5.81-.32,1.64-.97,1.75-1,2.68-.74,4.85-1.77,7.49-2.5.27-.08.72-.92,1-1,2.4-.69,4.23-2.21,6.74-2l.5.25v.75c-3.11,1.68-5.91,3.43-8.74,5-4.99,2.77-10.29,4.85-14.98,8l-2.75,1c-.05.8-.24,1.15.75,1,.85-.13,1.55-.88,2-1,3.66-1,7.01-2.17,10.49-3.5,11.61-4.36,23.46-8.82,34.96-13,1.65-.6,2.7-1.08,4.5-1.5,2.92-.68,6.01-2.32,8.99-3.5.29-.11.72.12,1,0,.26-.11,3.05-1.99,2.25-.25-.43.93-1.22.59-1.75.75-.26.08-.66.82-1,1-3.51,1.87-6.72,3.31-9.99,5-6.09,3.14-11.19,5.72-16.98,8.5-3.18,1.52-8.46,5.13-11.49,6-1.83.53-6.66,3.97-8.49,4.5-3.05.88-5.51,3.06-8.74,3.5h-1v1c-1.48.45-2.54,1.54-4,1.5v1c-.31.04-.81-.08-1,0l-.25-.5c-1.34-.35-1.53,1.18-2.75,1v1c-.83.27-1.27.32-2,.5-1.48.37-2.34,1.38-2.75,1.5-.59.17-1.22-.19-1.75.75v.75c-.97.26-.94.47-1,.5-.34.16-1.08-.09-1.5.75l.75,1.25,2.75-.5v-1c.35-.05,1.33-.08,1.5,0,.03.01-.09.42.25.5.54.13,1.28-.86,2.25-.5v-1c.64-.08,1.34.05,2,0h1v-1c.32,0,.8-.07,1,0,.03,0-.09.42.25.5h.5c.86-.75,1.87-1.16,3-1l.75-1.5c.35-.05,1.33-.08,1.5,0,.03.01-.09.42.25.5h.5c.93-.84,2.03-1.16,3.25-1v-1c.42-.12,1.2-.38,1.5-.5.3,1.05,1.6.24,2.25,0,2.97-1.1,6.49-2.89,9.74-3.75.99-.26,1.71-.8,1.5.75-.09.04-1.29.86-1.5,1h-1.5v1c-3.69,1.77-6.82,3.43-10.24,5-.88.41-1.25.68-2.25,1-.2.06-.51-.1-.75,0-.46.18-1.61,1.64-1.25,2h2.5v-1h4.5v-1c.8-.02,2.14.17,2.75,0,.27-.08.72-.92,1-1,.48-.13,1.41.16,1.75,0l.75.5,1.75-.5v-1c.93-.19,4.15-1.16,4.5-1,.03.01-.09.42.25.5.54.13,1.28-.86,2.25-.5v-1c1.89-.37,3.53-1,5.49-1h1v-1c.83-.03,1.67.02,2.5,0h1v-1c.99-.04,2,.03,3,0h1.5v-1c.33-.01.75.07,1,0l.25.5h.75v-1c.74-.21,2.38-.44,2.5-.5l.25.5h.75v1c-.16.02-.34-.03-.5,0-.39.07-.87-.09-1.25,0-.23.05-.44.77-1.25.5v1c-1.11.4-2.29,1-3.5,1h-1v1c-.49.03-1-.02-1.5,0h-1v1c-.49.03-1-.02-1.5,0h-1v1c-.49.03-1.02-.06-1.5,0-.96.12-1.46.66-2.5.5v1c-.3.06-.69-.05-1,0-.84.13-1.23.49-2,.5v1c-1.67.3-2.47.66-4,1-1.66.37-3.06,1.21-4.75,1.5l-1.25,1.5c-.48.07-1.02-.07-1.5,0-.94.14-.9.37-1.25.5-.49.18-1.25-.21-1.75.75v.75c-.66.05-1.34-.03-2,0h-1v1c-.49.03-1.02-.06-1.5,0-.52.07-1.8.34-2.25.5-.3.11-.43.76-1.25.5v1c-.3.02-.82.07-1,0-.03,0,.09-.42-.25-.5h-.5l-.75,1.5c-1.47.24-2.21.72-3.5,1-.38.08-.89-.1-1.25,0-.42.12-.78,1.34-1.75,1l.75,1.5h2l2.25-1.5c.86.01,3.6-.18,4,0,1.51.71.83.16,1.75,0,.77-.14,3.57.18,3.75,0v-1c.64.02,2.18-.15,2.5,0,1.5.7.82.17,1.75,0,.67-.12,1.53.08,2.25,0v-1c1.32-.05,2.67.01,4,0,.99,0,2,0,3,0v-1c.56.02,1.72-.13,2,0,.03.01-.09.41.25.5,1.03.26,1.32-.46,1.5-.5.51-.1,1.19.07,1.75,0v-1c.46-.04,1.78-.1,2,0,.03.01-.09.42.25.5,1.26.31,2.03-.71,3.25-.5v-1c.41-.02,1.3-.09,1.5,0,.03.01-.09.42.25.5.48.12,1.2-.07,1.75,0v-1c.33-.01.76.07,1,0l.25.5h.75v-1c.52-.05,2.26-.11,2.5,0,.03.01-.09.41.25.5.98.25,1.36-.63,2.25-.5v1h-1v1c-.32,0-.8.07-1,0-.03,0,.09-.42-.25-.5l-6.49,2-1.75,1.5c-.32.03-.75-.07-1,0l-.25-.5h-.75v1c-.66.29-1.18.35-1.5.5l-.25-.5c-.98-.25-1.36.63-2.25.5v1c-.3.02-.82.07-1,0-.03,0,.09-.42-.25-.5l-1.75.5v1c-.34.05-1.33.08-1.5,0-.03-.01.09-.42-.25-.5l-1.75.5v1c-.3.02-.82.07-1,0-.03,0,.09-.42-.25-.5h-.5l-6.49,2-1.75,1.5c-.64.08-1.35-.07-2,0-.41.04-.87-.07-1.25,0-.17.03-.83.88-1.75.5v1c-.32.04-.67-.03-1,0-2.21.19-3.57,1.03-5.74,1-.67.73-1.74.18-1.25,1.75.44,1.4,1.58.28,1.75.25,2.02-.39,4.02-.63,6.24-.5v-1c.67.14,2.06-.21,2.5,0,1.5.7.82.17,1.75,0,.67-.12,1.53.08,2.25,0v-1c.58-.02,2.23-.13,2.5,0,1.51.71.83.16,1.75,0,.82-.15,1.88.1,2.75,0v-1c.54,0,1.73-.12,2,0,1.5.7.82.17,1.75,0,.67-.12,1.53.08,2.25,0v-1c.44,0,1.28-.1,1.5,0,.03.01-.09.42.25.5,1.23.3,1.72-.44,2-.5.51-.1,1.19.07,1.75,0v-1c.43,0,1.29-.1,1.5,0,.03.01-.09.41.25.5,1.03.26,1.32-.46,1.5-.5.51-.1,1.19.07,1.75,0v-1c.5-.05,2.27-.11,2.5,0,1.73.82,1.24.15,2.25,0,1.15-.17,2.55.12,3.75,0v1.5c-.82.15-1.58.34-2.5.5-.86.15-1.93.25-2.75.5-.31.09-.79.86-1.75.5v1c-.32,0-.8.07-1,0-.03,0,.09-.42-.25-.5-.54-.13-1.28.86-2.25.5v1c-2.63.5-5.25,1.33-7.74,2-5.29,1.43-11.05,3.87-16.48,5.5-1.25.38-3.53,1.28-4.5,1.5s-2.62-.71-2.25,1c1.5-.15,3.3.21,4.75,0,.19-.03.31-.46.5-.5,4.91-.98,9.68-1.8,14.49-3,2.74-.68,6.12-1.25,8.99-1.5,1.38-.12,2.86.09,4.25,0,.4.36-.91,1.91-1.25,2-.78.21-2.1.27-3,.5-3.96,1.03-7.97,2-11.99,3s-8.74,1.58-12.99,2.5c-.17.04-1.33.96-1.5,1-1.05.23-3.15-.76-2.75,1,1.12-.42,2.43.76,3.25.5,1.38-.43,1.71-.21,3-.5,2.15-.48,6.01.26,8.49,0s6.4-1.04,8.99-1.5c2.81-.5,6.67,0,8.99-.5.17-.04,1.33-.96,1.5-1,2.59-.56,7.35-.03,10.49-.5,5-.75,10.39-1.59,15.48-2,.54-.04,1.89-.34,1.75.5l-3.25,1c-14.9,3.23-29.36,6.86-43.95,10.5-2.62.65-5.6.47-7.99,2l-4.25.5,1.25,1c7.76.53,15.93.71,23.98.5,4.81-.13,10.95-.75,15.48-.5h14.73c-.28,1.07-.9.93-1.75,1-2.66.22-5.41.98-7.99,1.5-3.52.7-7.03,1.31-10.49,2-1.56.31-3.64.21-4.99.5-.17.04-1.33.96-1.5,1-2.71.59-6.61.64-9.49,1-.39.05-2.61.95-3,1-1.18.15-2.54-.1-3.75,0-.34,1.68.9.74,1.75,1,1.68.52,4.41.03,6.49.5,1.01.23,1.87.3,3,.5,3.34.6,8.21-.44,11.74,0,.68.57.06.96-.75,1-1.12.06-2.45-.15-3.5,0-.26.04-2.24.96-2.5,1-1.85.27-4.59-.28-6.24.5l-.25-.5h-1.75v1c-1.99.07-4.01-.03-5.99,0-1.24.02-2.5-.06-3.75,0-.81.04-1.42.42-.75,1,.72-.09,1.03.32,1.75.5.84.2,2.41.46,3.25.5.41.02,1.3.09,1.5,0l.25.5h1l.25-.5c.45.21,3.53-.04,4.5,0v1h2.25l.25-.5c.29.13,1.44-.03,2,0v1c.55-.07,1.26.12,1.75,0,.34-.08.22-.49.25-.5.39-.18,5.47-.04,6.49,0v1h2.25l.25-.5c.24.11,1.04-.04,1.5,0v1h2.25l.25-.5c.46.22,3.97-.03,4.99,0v1c1.12.39,1.42-.46,1.5-.5.22-.1,1.06,0,1.5,0v1h1.5v.5h-3v1c-1.28.06-5.93-.27-6.49,0l-.25-.5h-.75v1c-.3.06-.7-.06-1,0l-.25-.5h-2.25v1c-2.38.09-6.67-.36-8.49.5l-.25-.5h-1.75v1c-.88.03-4.64.17-4.99,0-.08-.04-.38-.89-1.5-.5v1c-.9.03-3.58-.2-4,0l-.25-.5h-.75v1c-2.8.25-9.48-.45-11.49.5l-4.25-.5c-.77.55-.86,1.08-.75,2,.66,0,1.34-.01,2,0,.98.02,2.03-.08,3,0v1h.75l.25-.5c1.22.48,2.94.68,4.25,1,1.91.47,3.19.41,5.24.5v1h1c1.87-.1,3.54.16,5.24.5,4.21.84,8.86.97,12.99,2,2.51.62,4.98.38,7.49,1,.2.05.31.47.5.5,1.46.26,3.45-.19,4.99,0l1.75,1.5c-3.9-.09-7.83.12-11.74,0-7.75-.23-16.49-.7-23.73-1v-1h-2.25l-.25.5c-.29-.06-.67.01-1,0l-2.75-1.5c-2.72.53-5.21-.76-7.49-1-1.27-.13-2.69.09-4,0l-1.25,1.5c.8-.28,1.06.47,1.25.5,1.34.23,2.58.15,4,.5,1.64.41,3.56.61,4.99,1.5.81.22.7-.48.75-.5.18-.08,1.13-.04,1.5,0v1h.75l.25-.5c.83.39,2.93.39,4,.5v1l1.75.5c.81.22.7-.48.75-.5.23-.11,1.99-.05,2.5,0v1c.96-.36,1.44.41,1.75.5,1.19.37,1.18-.47,1.25-.5.21-.1,1.54-.04,2,0v1h1.5v.5h-1.75l-.25.5c-.54-.25-4.79.06-5.99,0v-1c-.85-.12-1.98.17-2.75,0-.7-.16.08-.63-1.25,0-.31.14-2.33.01-3,0v-1c-.66,0-1.34.01-2,0-1.31-.02-2.73.11-4,0v-1h-.75l-.25.5c-.26-.08-.69.06-1,0v-1h-.75l-.25.5c-.41-.19-4.5,0-5.49,0,.28-1.51-.77-.99-1.75-1-1.25-.02-2.5.01-3.75,0l1.25,2c.41.02.84-.03,1.25,0,.49.04,1-.03,1.5,0v1h1c.65.05,1.36-.08,2,0v1c.55.07,1.26-.12,1.75,0,.73.17-.07.62,1.25,0,.21-.1,1.55-.04,2,0v1h.75l.25-.5c1.36.54,2.46.45,4,.5v1c1.2.38,1.41-.48,1.5-.5.27-.06.69-.02,1,0v1h.75l.25-.5c.42.2,2.21-.09,3,0v1c.96-.36,1.44.41,1.75.5,1.19.37,1.18-.47,1.25-.5.23-.11,2.47-.06,3,0v1l1.75.5c.81.22.7-.48.75-.5.32-.15,2.77-.02,3.5,0v1h1.5c.32-.04.78.08,1,0l2.25,1c2.36-.33,3.43.86,5.24,0,.29-.14,2.82-.04,3.5,0v1.5c-.21-.06-.79-.06-1,0l-.25-.5h-4.99l-.25.5c-.12-.06-1.37-.06-1.5,0l-1.75-1c-1.52.74-3.18.47-4.99.5l-.25.5c-.28-.13-1.44.02-2,0v-1h-4.25l-.25.5c-.36-.17-2.26.03-3,0v-1c-1.04-.1-2.25.15-3.25,0s-.52-.82-2.25,0c-.31.15-5.61.07-6.49,0v-1h-.75l-.25.5c-.32-.32-1.51.36-1.5,1,.86-.2,1.65.78,2.25,1,1.09.4,2.41.27,3.5.5.17.04,1.33.96,1.5,1,1.32.28,2.93.11,4.5.5,4.07,1.01,8.34,1.94,12.49,3,4.58,1.17,9.28,2.65,13.99,3.5.85.15,1.59-.33,2.25.75l-3.75.25c-9.51-1.53-19.59-1.62-28.97-3.5-.19-.04-.31-.47-.5-.5-1.91-.28-4.5.58-5.99-.5h-1l-.75,1,2.25.5c1.29,1.19,3.04,1.04,4.5,1.5.32.1.79.86,1.75.5l1-1,.25,1.5,1.25-.25v-.75l2,.5v1.5l2.5.5,1-1,.25,1.5c.79-.35,1.35.47,1.5.5,7.63,1.41,14.9,4,22.48,5,.8.11,1.27.76,2.25.5.12.87-1.14.49-1.75.5-3.43.07-6.74-.09-9.99-.5-2.77-.35-6.22-.65-8.99-1-2.93-.37-5.73-.25-8.74-.5v-1c-.96.36-1.44-.41-1.75-.5-1.19-.37-1.18.47-1.25.5-.21.1-1.07,0-1.5,0v-1h-1.5c-.32.04-.78-.08-1,0l-.25-.5h-.5l-.25.5c-.2-.08-.68.01-1,0v-1h-1.5c-1.15-.07-2.35.1-3.5,0v-1c-.55-.07-1.26.12-1.75,0-.19-.05-.3-.44-.5-.5-.81-.23-.7.48-.75.5-.19.07-.68,0-1,0v-1h-1c-.24.03-.53-.09-.75,0s-.34.5-.5.5c-.1,0-.49-.77-1.25-.5v-1l-4.99-1c0,1.9,2.18,2.06,3.25,3,.41.03.85-.05,1.25,0,.32.04.68-.05,1,0v.75c.5.96,1.26.57,1.75.75.36.13.33.34,1.25.5.3.05.67-.02,1,0v1h1c2.99.3,5.39,2.35,8.49,3v1h1c.66.02,1.34-.03,2,0v1h1c2.04.35,3.89,1.48,5.99,2v1l1.75.5.75-.5c.29.16,1.39-.07,1.5,1v1c-.92.38-1.57-.47-1.75-.5-1.67-.31-2.86-.48-4.5-1-3.5-1.12-7.22-2.19-10.99-3-.86-.19-3.63-1.81-4.5-2s-2.72.25-3.25,0c-.82-.39-.69-.43-2-.5l-.25-.5h-.5l-.25.5c-.33,0-.67-.01-1,0-.5.02-1,0-1.5,0-.29,1.31.88,1.24,1.25,1.5,1.52,1.08,1.28,1.18,3.25,1.5,2.39.39,6.59,4.53,8.24,5,4.08,1.16,7.62,4.89,11.49,6,.28.08,2.22,1.92,2.5,2,1.08.3,2.35.24,3.5,1,.6.4,1.14,1.28,1.75,1.75l-2.25.75c-.8-1.06-2.15-.77-3-1s-1.8-1.54-3.25-1v-1c-3.62-1.37-6.91-2.94-10.74-4-.21-.06-1.21-1.16-1.75-.25.6.38,1.82,2.13,2.25,2.25,3.18.92,5.67,2.69,8.49,3.5,2.51.72,6.89,4.4,8.99,5,3.5,1.01,6.79,3.41,10.49,5,.72.31,1.43.62,2.25.5v1.5c-.52.53-5.15-1.94-6.24-1.5-.65.96-.65.07-1,0s-.84.04-1.25,0v-1c-1.25,0-2.15-1.3-3.5-1v-1c-4.93-1.92-9.81-4.17-14.73-6.5l-2.25-.5c-.5.43,1.37,2.25,1.75,2.5,2.17,1.44,5.33,2.67,7.49,4,1.74,1.07,5.07,3.14,5.74,4.5,1.13-.17,2.1.17,2,1.5-.56-.07-1.24.11-1.75,0-2.98-.62-6.91-4.12-9.99-5-.26-.08-2.73-1.92-3-2-3.52-1.01-7.2-3.3-10.49-5-1.73-.89-4.77-2-6.49-2.5-.44-.13-.97-1.52-2.25-1-.29,1.31.88,1.24,1.25,1.5,1.14.81,2.28,1.93,3.75,2v1c.33.03.71-.06,1,0v.75l.75.75h.75c2.86.06,4.69,3.16,7.49,3.5v1l-.5,1c-.25-.11-1.04.02-1.5,0v-1h-1c-1.77-.14-1.91-.91-4-1v-1h-1c-.5-.02-1,.03-1.5,0v-1h-1c-1.87.26-2.15-.82-4-1v-1h-1c-1.34.11-2.18-.72-3.5-1v-1h-3.75l-.25,1c1.1-.2,1.52.97,2.25,1.5,6.35,4.61,13.66,9.19,19.98,13.5,1.78,1.21,5.26,2.53,5.74,4.5l2,1.25-1.75.25c-8.73-4.34-17.75-8.19-26.47-13l-5.24-2,2.75,3c1.35.36,2.14,2.09,3.75,2v1c4.84,2.36,9.36,6.34,14.24,9l.25.5v1c.75.02,1.18.36,2,.5.46.08,1.01-.05,1.5,0v1c.23,1.99-.86.55-1.25.5-1.63-.2-1.58-.88-2-1-1.61-.46-3.18-1.2-4.75-1.5-.3-.06-.68.04-1,0l-.75-1.5c-.81-.23-.7.48-.75.5-.18.07-.7.02-1,0v-1c-.84.19-1.58-.71-2.25-1-.24-.1-.57.07-.75,0-1.03-.4-1.83-1.25-3-1v-1l-2-.5c-.75-.65-1.36-.34-2-.5v-1c-1.13-.07-1.8-.83-3-1-.48-.07-1.01.03-1.5,0v-1h-2.5v-1h-2c-.05,1.27.87,1.81,2,2,.22.04.41-.06.5.25v.75h1v1c.33.02.68-.04,1,0v1h1c.06.12,1.61,1.27,2,1v1h1v1h1v1h2l.5,1v1h1c.02.06.76-.04.5,1h1v1c1.88-.51,2.32,2.06,4,2v1l2.5,1v2l-2-.5c-2.97-.63-4.9-2.68-7.74-3.5-.45-.13-2.37-2.11-3.5-2l-.25-.5v-1h-1.5v-1c-1.72-.15-2.81-2.44-4.75-2-.79-.92-1.94-1.63-3.25-1.5l.5,2c2,.67,3.93,3.09,5.74,4.5.8.62,1.43.47,2.25,1,.37.34.68.71,1,1v.75c.78.85,1.25,1.5,2.5,1.25.39.36.76.79,1,1v.75c1.48,1.15,2.53,3.51,4.5,3.25.26.23.46.46.5.5l2,3.5c-.51.52-2.85-1.84-3.25-2-.21-.08-.5.04-.75,0-.32-.05-.68.05-1,0l-1.25-1.5-2.25-.5v-1l-3-1v-1c-1.74-.69-3.62-1.97-5.24-3-.42-.27-3.04-2.75-2.75-.75.12.82,1.03,1.66,1.75,2.25.11.09.41-.08.5,0,1.05.93,1.96,2.05,3,3,.5-.1,1.42.15,1.75,0v1c1.04-.26.94.48,1,.5v1h1l1,.5v1h1v1c.33.03.71-.06,1,0v.75c.54.35,1.29,1.56,1.75,1.75.25.1.58-.08.75,0,.55.25.85.66,1.5.5-.26,1.03.47.94.5,1,.08.16-.13.53,0,.75.44.78,1.16.85,2,.75.72.64,1.59,1.52,2.5,1.5v1h1v1h1v.75c.09.31.28.21.5.25v.75l1.5.75-.5,1.5h-1.5v-1c-.33-.02-.68.04-1,0v-1h-1c-1.1-.13-1.83-.76-3-1v-1h-1c-1.14.15-2.36-1.22-3-1.5v-1h-1c-.33-.02-.68.04-1,0v-1h-1c-.33-.02-.68.04-1,0v-1h-1l-3-.5v-1c-.33-.02-.68.04-1,0v-1h-2v-1c-1.44-.07-2.85-1.04-4-1.5v-1h-1.5l-4-1.5c-.22,1.15.14,1.29.75,2,2.33,2.74,7.05,5.7,9.99,8,3.87,3.03,12.13,10.39,15.98,11.5.13.04,1.46,1.16,2,1.5.78.49.72,1.49,1.5,2h1.75v1.5c1.48.08,2.29.89,3,2.25l-2.25-.25c-10.14-5.87-20.89-10.84-30.97-16.5l-3.25-.5c1.7,2.84,4.22,4.51,6.74,6.5,3.76,2.96,7.64,6.18,11.49,9,.96.7,2.38,1.42,2.25,2.5l2,1.25-1.25.75-4.5-3.5c-4.69-1.83-8.53-5.44-12.99-7.5-1.95-.9-4.07-2.22-5.99-3.5l-2.25-.5c.71,1.64,2.53,1.97,3.5,3.25,1.61,2.12,4.58,4.94,6.99,6.25v1c1.4.45,3.55,2.6,4,4h1v1c1.03-.1,2.1.97,2,2h1c-.1,1.03.97,2.1,2,2v1h1v1c2.27.37,3.73,3.83,5.24,4.5l3.25,3.5c-1.57.26-2.68-1.31-3.75-2-9.58-6.2-19.45-13.12-28.97-19.5-.99-.66-3.47-1.7-4.5-2-.74-.21-1.64-2.63-3.25-2-.63-.76-.29-1.81-1-2.25-.42-.26-1.31-.57-1.5,0l.5,1.75h1v1c.31.05.83-.08,1,0,.11.05,1.39,1.95,1.5,2v1h1c.03.06.94.96,1,1v.75l.75.75h.75c.03.21-.06.38.25.5h.75v1h1v1h1v1h1v1h1v1h1v1h1v1h1v1h1v1h1v1h1v1h1v.75c.12.31.29.22.5.25v.75l.75.75h.75c.08.18,2.6,2.21,3,2.5v.75c.31.8,1.43.69,1.5.75.09.09-.13.51,0,.75.33.6,1.32,1.42,2,1.25v1.5h-1.5c-.17-.08-.69.05-1,0v-1l-3-1v-1c-1.7.13-2.47-1.93-4-2v-1l-3-1v-1l-3-1v-1c-1.31-.17-2.69-1.22-3.75-2-.72-.53-1.12-1.68-2.25-1.5-.22,1.15.14,1.29.75,2,1.56,1.84,5.83,5.11,6.74,6.75.64,1.14,1.13.86,2,2,1.92,2.53,4.55,4.98,6.49,7.5.41.53,1.06.97,1.5,1.5l-1.25.75c-2.06-1.22-3.66-2.64-5.49-4-4.63-3.44-9.34-7.24-13.99-11-.1-.08-.29-.06-.5,0-1.85-1.55-3.25-4.16-5.74-4.5-.4,1.63,1.18,2.15,2,3.25.14.19-.09.6,0,.75l.5.5c.22.08.68-.04,1,0,.3,1.84,2.85,3.03,3,5h1v1h1v1h1v1h1v1h1c-.16.95.69,1.57,1.5,2v.75l.75.75h.75c.03.21-.06.38.25.5h.75v1h1v1h1v2h1c.59,1.22,6,4.8,5.99,7h1v1h1v1h1v1.75c.66.43.52,1.01.5,1.75h-1.5l-.25-.5c-.62.26-.98-.49-1.25-1-.08-.16.13-.53,0-.75-.44-.78-1.16-.85-2-.75-.02-.03-.18.14-.5-.5-.08-.15.11-.49,0-.75-.3-.73-1.26-.86-2-.75l-1-.5v-.75c-.12-.34-.38-.2-.5-.25l-.5-.5c-.05-.12.09-.38-.25-.5h-.75v-1h-1c.12-1.26-.8-1.68-2-1.5l-1-.5v-.75c-.12-.31-.29-.22-.5-.25v-.75l-.75-.75h-.75c-1.17-1.6-3.83-2.33-4.99-4.5-.08-.15.11-.49,0-.75-.3-.73-1.26-.86-2-.75l-1-.5v-1h-1v-1c-1.29.47-2.67-1.84-3-2v-1h-2v-1c-.95.3-1.4-.37-2-.5v-1.5l-1.75-.5-.75.75.75,1.25c.41.05.88-.08,1.25,0l.5,1.5h1c-.13,1.16,1.18,2.33,1.5,3,.12.25-.11.89,0,1.25l1.5.75c.16.59-.28.66.5,1v1.5h1c.22.56.68.84.5,1.5h1l1,3h1l2,5h1c-.18,2.63,2.85,4.16,3,7l.5,2h-1c-.09-.09-.51.13-.75,0-1.17-.65-3.59-4.01-4.25-5-.98-1.48-1.82-4.77-4-5-.3-2.23-2.98-5.7-4.99-6.5.64-2.03-1.69-2.19-2-2.5-.06-.06.05-1.19-.75-1.5h-1.25c.69-.99.7-1.54-.5-2l-.5,3.75c.33.81,1.38.66,1.5.75.75.56,2.4,3.8,3,4.75,3.01,4.77,6,9.12,8.99,14,1.92,3.14,3.7,6.27,5.49,9.5.93,1.67,1.31,1.07,1.5,1.25.09.09-.11.48,0,.75.09.21.44.31.5.5.24.76-.17,1.3-.75,1.75-1.5-1.33-2.61-2.77-3.75-4.25-1.4-1.82-3.15-4.07-4-6.25h-1c-2.06-4.7-6.51-8.48-8.99-13h-1c-1.81-3.09-4.15-5.36-6.49-8.25-.83-1.02-2.63-2.18-2,0,.2.68,1.25,1.54,1.5,2,1.7,3.13,3.25,6.65,4.99,9.5s3.11,5.03,4.5,8l.5,2.25-2-1.75c-2.07-2.23-4.73-5.68-6.99-8.5-2.38-2.97-4.74-6.02-6.99-9-.56-.74-1.67-1.85-2.5-1,.06.48-.1,1.07,0,1.5.62,2.81,2.28,5.64,2.5,8.75v1h1c.03.83-.02,1.67,0,2.5v1h1c.03.83-.02,1.67,0,2.5v1.5h1c.13,2.33,1.34,3.59,1,6v1h1c.02.45-.11,1.27,0,1.5l-.5.25v.75h1c.19.71.91,1.64.5,2.5-.01.03-.42-.09-.5.25l.5,1.75h-1v-1h-1c-.06-.29.03-.67,0-1v-1h-1c-.28-1.37-1.22-1.57-1-3v-1h-1c-.04-.32.02-.67,0-1v-1h-1c-.04-.32.02-.67,0-1v-1h-1c-.24-1.16-.87-1.9-1-3v-1h-1c-.5-2.44-3.12-4.78-3-7.5v-1h-1c-.03-.49.06-1.02,0-1.5-.07-.53-.34-1.8-.5-2.25-.3-.82-1.38-1.57-1-2.75h-1c-.06-.2.07-.49,0-.75s-.87-.8-.5-1.75v-1h-1c-.13-1.38-.69-2.3-1-4-.17-.94-.63-1.5-.5-2.5h-1c-.77-2.72-1.65-5.4-2.5-8.25-.08-.26-.77-.43-.5-1.25h-3l1,1,.5,3h-1c-.43.43.92,1.91,1,2.25.32,1.48.14,3.75.5,5.5.53,2.58,1.46,5.32,2,8,.15.74.45,1.72.5,2,.09.56.03,1.39,0,2-.04.81-.42,1.43-1,.75l-.5-2.25c-8.22-16.48-15.24-33.24-21.48-50.5-.11-.3-.76-.43-.5-1.25l-2.5.5c-.34.96.89,1.34,1,1.75.17.61-.18,2.57,0,2.75v1h1c.14,1.43,1.05,4.3,1.5,5.75.56,1.8,1.75,3.63,1.5,5.75v1h1c.18,1.91,1.33,2.97,1,5v1h1c.1,2.25,1.28,2.76,1,5v1h1c.16,1.66.75,1.84,1,2.75.62,2.27.93,4.77,2,6.75l-.5.75.5,1.25h1c.08.46-.05,1.01,0,1.5v1h1c0,.32.07.75,0,1,0,.03-.42-.09-.5.25-.19.84,1.14,3.14,1.5,4,.11.27-.09.66,0,.75h1c.08.26-.07.73,0,1l-1.5,1c.52-1.27-.87-1.81-1-2.25-.54-1.88-1.8-3.07-2-5l-2.5-2.75c-.34-1.52-.91-2.1-1-3.5h-1c.29-1.41-.45-2.2-1-3.25-3.66-7.01-7.19-13.62-9.99-20.5-.13-.32-.76-.43-.5-1.25h-1v-1c-3.13-.2-.66,1.18-.5,1.75.37,1.35.58,3.47,1,5,.06.23.93,2.61,1,2.75l-.5.75.5,1.25h1c.02.3.07.82,0,1,0,.03-.42-.09-.5.25l.5,1.75h1c.05.34.08,1.33,0,1.5-.01.03-.42-.09-.5.25l.5,1.75h1c.08.26-.08.73,0,1l-.5.25v.75h1c.17.66.72,2.02.5,2.5-.01.03-.42-.09-.5.25-.13.54.86,1.28.5,2.25h1c.03.31.06.72,0,1,0,.03-.42-.09-.5.25-.22.89,0,1.74.75,2.25h.75c.05.34.08,1.33,0,1.5-.01.03-.42-.09-.5.25-.13.54.86,1.28.5,2.25h1c.06.46-.12,1.25,0,1.5l-.5.25v.75h1c.18.77.82,2.33.5,3-.01.03-.42-.09-.5.25-.13.54.86,1.28.5,2.25h1c.02.41.09,1.3,0,1.5-.62,1.32-.17.52,0,1.25.12.49-.07,1.2,0,1.75h1c0,.43.1,1.29,0,1.5-.01.03-.42-.09-.5.25-.28,1.16.48,1.78.5,2.75h1c.01.51.11,1.76,0,2-.01.03-.42-.09-.5.25l.5,1.75h1c.05.41.09,1.81,0,2-.01.03-.42-.09-.5.25-.28,1.16.48,1.78.5,2.75h-1v-1h-1c0-.32-.07-.81,0-1,0-.03.42.09.5-.25.13-.54-.86-1.28-.5-2.25h-1c-.06-.49.04-1.01,0-1.5v-1h-1c0-.32-.07-.81,0-1,0-.03.42.09.5-.25l-.5-1.75h-1c-.22-.91-.68-3.31-1-4l.5-.75c-.91-1.13-1.21-2.5-1.5-3.75h-1c-.05-.35-.08-1.33,0-1.5.01-.03.42.09.5-.25l-.5-1.75h-1c-.08-.46.05-1.01,0-1.5v-1h-1c0-.32-.07-.81,0-1,0-.03.42.09.5-.25l-.5-1.75h-1c-.08-.46.05-1.01,0-1.5v-1h-1c0-.32-.07-.81,0-1,0-.03.42.09.5-.25l-.5-1.75h-1c-.08-.26.08-.73,0-1l.5-.25v-.75h-1c-.2-.53-.36-1.17-.5-1.5l.5-.75-.5-1.25h-1c-.08-.27.08-.73,0-1l.5-.25v-.75h-1c-.2-.55-.35-1.11-.5-1.5l.5-.25v-1.25h-1c-.19-.75-.82-1.38-.5-2.5v-1h-1c0-.32-.07-.81,0-1,0-.03.42.09.5-.25l-.5-1.75h-1c-.22-1.45-.28-2.22-1-3.5l.5-.75c-1.21-1.1-.6-3.42-2.5-3.25v-1c0-1.04-.21-1.39-.5-2.25l-1.5-1.25v2.75l1,.75c-.04.32.08.79,0,1,0,.03-.42-.09-.5.25-.16.68.45.8.5,1,.12.49-.07,1.2,0,1.75h1c-.08.44.13,1.22,0,1.5-.62,1.32-.17.52,0,1.25.12.49-.07,1.2,0,1.75h1c.02.41.09,1.3,0,1.5-.62,1.32-.17.52,0,1.25.12.49-.07,1.2,0,1.75h1c-.01.32.08.8,0,1,0,.03-.42-.09-.5.25-.16.68.45.8.5,1,.12.49-.07,1.2,0,1.75h1c-.01.33.07.75,0,1,0,.03-.41-.09-.5.25-.25.99.63,1.36.5,2.25h1c.06.4.09,1.81,0,2-.01.03-.42-.09-.5.25-.13.54.86,1.28.5,2.25h1c.02.41.09,1.3,0,1.5-.01.03-.42-.09-.5.25-.13.54.86,1.28.5,2.25h1c.05.34.08,1.33,0,1.5-.01.03-.41-.09-.5.25-.26,1.03.46,1.32.5,1.5.1.51-.07,1.19,0,1.75h1c0,.43.1,1.29,0,1.5-.01.03-.42-.09-.5.25-.13.54.86,1.28.5,2.25h1c.04.46.1,1.79,0,2-.01.03-.42-.09-.5.25-.12.48.07,1.2,0,1.75h-1.5c-.08-.64.05-1.35,0-2v-1h-1c-.04-.32.07-.75,0-1l.5-.25v-.75h-1c-.24-.79-.79-1.38-.5-2.5v-1h-1c0-.32-.07-.76,0-1,0-.03.36.1.5-.25v-.75h-1c-.02-.33.04-.68,0-1-.47-3.83-2.83-7.25-4-10.75-.39-1.18-.66-3.26-1-4.5-.14-.49-2.07-1.9-1.5-3.25-.58-.68-.96-.06-1,.75-.04.92-.1,2.12,0,3,.02.18.48.31.5.5.11.86-.08,1.86,0,2.75h1c.11.56-.17,1.64,0,2l-.5.25v.75h1c.02.31.06.73,0,1-.02.09-.88.3-.5,1.5h1c.19.92.92,3.11.5,4-.04.08-.88.38-.5,1.5h1c.03.33-.07.75,0,1l-.5.25v.75h1c.02.31.06.72,0,1,0,.03-.42-.09-.5.25-.31,1.26.71,2.03.5,3.25h1c.07.58-.15,1.68,0,2l-.5.25v1.25h-1c-1.59-3.39-2.89-7.4-4.5-10.75-1.16-2.41-2.77-4.65-3-7.25h-1v-3h-1c-.26-1.26-.82-1.29-1-2-.07-.27.03-.68,0-1h-1c0,.33.01.67,0,1-.06,1.49,0,3.01,0,4.5-1.51-.28-.99.77-1,1.75-.02,2-.01,4,0,6,0,.78-.36,2.42.5,2.75-.11.23.02,1.05,0,1.5h-1v6.25l.5.25c-.37.79.04,12.78,0,15h-1v3.75l.5.25c-.15.31.02,1.86,0,2.5l-2,1c-.02-1.91.02-3.83,0-5.75-.01-.98.51-2.03-1-1.75-.01-.33.05-.69,0-1l.5-.25v-4.25h-1c-.04-1.93.33-11.79,0-12.5.85-.32.5-1.98.5-2.75-.02-3.67-.45-7.49-.5-11.5-.01-.98.51-2.03-1-1.75,0-1,0-2,0-3-1.24-.2-1.2.62-1.5,1.25-1.35,2.91-2.6,5.87-3.5,9-.08.28-.92.73-1,1-1.09,3.97-2.94,7.68-4,11.5-.07.24-1.45,2.09-1.5,3l-1.25,2.75c-.43-.32-.34-1.77-.25-2.25.04-.19.45-.3.5-.5.81-3.45,1.15-7.08,2-10.5.8-3.23,1.19-6.73,2-10,.15-.62.48-1.42.5-1.5.26-1.44-.54-3.46.5-4.5l-.75-1.25c-.44.42-1.03,1.24-1.25,1.75-.79,1.84-1.55,4.6-2,6.5-.22.93-.74,2.17-1,3.25h-1v.75l.5.25c-.07.25.04.68,0,1h-1v1c-.05.49.08,1.04,0,1.5l-2,2.75-1,2.5-1,3.75c-1.38.5-1.19-1.44-1-2.25.2-.85.75-.16,0-1.75-.08-.17-.05-1.16,0-1.5h1c-.21-1.22.81-1.99.5-3.25-.08-.34-.49-.22-.5-.25-.08-.18-.04-1.13,0-1.5h1v-.75l-.5-.25c.4-1.01.38-1.9.5-3h1c.07-.55-.12-1.26,0-1.75.05-.19.44-.3.5-.5.23-.81-.48-.7-.5-.75-.07-.19,0-.68,0-1h1c.07-.55-.12-1.26,0-1.75.17-.73.62.07,0-1.25-.08-.17-.05-1.16,0-1.5h1l.5-1.75c.22-.81-.48-.7-.5-.75-.09-.19-.02-1.1,0-1.5h1v-1c.09-1.14-.13-2.39,0-3.5h1l.5-1.25c.22-.81-.48-.7-.5-.75-.11-.23-.02-1.51,0-2h1v-5c.32,0,.95.05,1,0,.25-1.14.72-2.14.5-3.5h-1.5l-1,2.25c-.03.41.04.84,0,1.25-.03.32.02.67,0,1h-1v1c0,.33.02.67,0,1h-1v1.5c-.02.5.03,1.01,0,1.5l-1.5.75c-.22.81.48.7.5.75.09.19.02,1.1,0,1.5h-1v1c-1.72,8.88-5.56,17.01-8.49,25.25-1.43,4.01-2.65,8.45-4,12.5-.33.98-1.73,5.45-2.25,5.75-.23.13-.66-.09-.75,0l-.75,2.5-1.25-1.25c.94-.78.34-2.3.5-3.5.43-3.17,1.69-7.76,2.5-11,.39-1.56,1.23-3.74,1.5-5,.41-1.89.56-4.49,1-6.5.22-1.02,1.78-3.98,2-5,.62-2.88,1.23-5.67,2-8.5.35-1.28,1.65-3.72,2-5,.82-3,1.44-6.17,2.5-9l.5-3.25c-1.09.25-1.14,1.59-1.5,2.25-2.8,5.2-4.86,10.4-7.49,15.5-3.39,6.56-8.08,13.84-10.99,20.5-.95,2.18-2.03,4.37-3,6.5-.18.39-.14,1.17-1,1.25.09-.71-.14-1.61,0-2.25.04-.18.91-1.24,1-1.5,1.97-5.67,3.56-11.26,5.49-17,2.93-8.66,6.25-17.84,8.99-26.5,1.45-4.58,2.46-9.57,4.5-14l1-4.75h-2c.26.82-.39.95-.5,1.25-2.34,6.47-4.6,12.84-6.99,19-4.09,10.56-9.08,21.94-13.99,32.5-1.33,2.86-2.73,5.29-4,8l-.5,3.75c-.97.04-.39-1.57-.5-2.25-.04-.23-.79-.76-.5-2,.05-.19.45-.3.5-.5.97-4.05,1.2-8,2.5-12,1.61-4.97,2.12-10.71,3-16,.05-.29.96-2.23,1-2.5.16-1.07.06-2.85,0-4-.04-.81-.42-1.43-1-.75l-1,3.25c-.06.74.09,1.53,0,2.25h-1l-.5,1.25.5.75c-1.25,2.67-3.32,9.91-4,13l-1.5,1.25c-3.38,8.93-6.34,17.59-10.99,26.5-.81,1.55-.65,1.66-1,3.25-.55,2.48-3.51,5.79-4,8.25l-1.5,1.75h-1v-1.5c.02-.83-.03-1.67,0-2.5h1v-1c.06-.81-.1-1.71,0-2.5h1l.5-1.75c.22-.81-.48-.7-.5-.75-.08-.17-.05-1.16,0-1.5h1l.5-1.25c.22-.81-.48-.7-.5-.75-.08-.17-.05-1.16,0-1.5h1l.5-1.25-.5-1.25c.67-1.7.95-2.55,1-4.5h1v-1.5c.02-.66-.03-1.34,0-2h1v-1c.06-.65-.09-1.37,0-2l1.5-2.75-1.25-.75-1.25.5c-.02.33.04.68,0,1s.02.67,0,1h-1v1h-1v1h-1c-3.75,5.88-9.19,11.13-12.99,17h-1v1h-1v-1h1c1.35-5.03,5.22-9.84,7.49-14.75.93-2,2.39-3.86,3-6,.03-.12,1.2-1.5,1.5-2,.45-.76.68-.42-.25-1.25-.5.6-1.28.5-1.75,1.25-2.81,4.44-7.52,8.17-9.99,12.75h-1c-2.55,5.63-8.07,10.91-11.49,15.75-.63.89-2.13,1.48-2,2.75l-1-.25c-.3-1.31.98-2.13,1.5-3,2.31-3.87,4.69-7.65,6.99-11.5,2.77-4.63,5.04-10.95,8.99-13.75v-1h1c.03-1.14.74-1.21,1-2.5.03-.16-.02-.34,0-.5h1v-1.5h1c.87-2.06,2.35-3.45,3-5.75.12-.41,1.34-.78,1-1.75-.92-.19-1.19.5-1.75,1-2.22,1.96-4.32,4.68-5.74,7-.08.14-.75.97-1,1l-1,.75v.75l-.5,1.5h-1l-.5,1c-1.75.85-2.3,2.59-3,4-.45.91-.52,1.56-1.5,2-2.29,1.04-.91.74-1.5,2s-1.81,2.1-2.5,3h-.75c-.91.98-2.07,1.53-1.75,3l-.5.5h-1.5v-1.5c.07-.07.4-1.63.5-2h.75l.75-.75v-.75c-.27-.95.3-1.35.5-2h1v-1c.03-1.14.73-1.21,1-2.5h1v-1l1-3h1l1-3h1c.09-.63.3-1.4.5-2,.84.14,1.55-.66,2-1.25.47-.63,1.16-1.87,1-2.75h1c-.13-1.31,1.53-1.99,2.25-3,.32-.46.22-.92.75-1.25-.76-2.67-2.12-.22-3.25.75-.75.64-1.45.18-1.75,2-.05.33-1.89,1.47-2.5,2-.93-.11-1.45-.02-2,.75v.75c-.05.03-.32.87-.75,1h-1.25v1h-1v1h-1v1h-1v1c-7.7,5.26-14.63,12.47-22.23,18-.64.46-1.2,1.1-2,1.5-.43,0-.33-.99-.25-1.25.11-.36,1.6-1.44,2-2,.71-1.01,1.04-1.17,1.5-2,1.85-3.32,8.44-7.54,9.99-11.25h1c.9-2.03,2.91-4.36,4.75-6,.8-.72,2.72-1.09,2.25-3,1.03.1,2.1-.97,2-2h1v-1h1v-1h1v-1h1v-1h1c-.1-1.26,1.42-1.5,1-3h1v-1h1l.5-1c.96-.38,4.7-4.3,4-5-1.15-.22-1.29.14-2,.75-.54.46-2.24,2.04-2.5,2.5-.13.24.09.66,0,.75-.08.08-1.69.36-2,1h-1v1c-.06.03-.31.87-.75,1h-1.25v1h-1v1h-1v1h-2v1c-.32.04-.67-.02-1,0v1c-4.86,2.61-9.15,6.72-13.74,10l-2.25.5c-.18-.94.78-.15,1-.75.88-2.45,5.31-5.23,5.99-7.75h1v-1h1v-1h1v-1l1-.5h1v-1c.06-.02-.04-.76,1-.5v-1h1v-1h1v-1h1v-1.25c.07-.31.29-.22.5-.25,1.94-.32,4.42-3.94,5.74-5.5.61-.71.97-.85.75-2-.87-.87-4.95,3.82-5.74,4.5-.75.64-1.45.18-1.75,2-.03.21.06.43-.25.5h-1.25v1l-3,1v1c-1.52.07-2.29,2.13-4,2v1l-2,.5h-1v1c-.16.02-.33-.01-.5,0h-.75l-.75.75v.75c-.29.06-.67-.03-1,0v1h-1l-3.5,1.5c-.1-2.51,2.81-2.34,3-4.5.21-.03.38.06.5-.25v-.75h1v-1h1v-1l1-.5c1.29.27,1.48-.31,2.25-1,1.18-1.06,2.42-2.08,2.75-3.5.04-.16-.04-.35,0-.5,1.6.17,1.73-.19,2-1.5.29-.06.67.03,1,0v-1c.06-.03.96-.94,1-1,.98.17,1.39-.69,2-1.25,1.03-.96,2.74-2.17,2.5-3.75.25-.26.97-.94,1-1h1v-1c.69-.23.47-.49.5-.5.28-.12.89.11,1.25,0,.68-.2,1.56-1.72,1.25-2.5v-.5h.75c1.01-.54,2.96-3.3.5-2.5-.46.15-.79,1.36-1.75,1v1h-1.5v1h-1.5v1h-1v1h-1.75l-.25.5h-1v1c-.73.15-1.28.45-2,.5v1h-2v1c-.32.04-.67-.02-1,0v1h-2v1c-.16,0-.34-.03-.5,0-.89.15-.72.23-1.25.5-.14.07-.39-.07-.5,0-.42.25-.54.7-.75,1-.35.51-.49.47-.5.5l-3,1c-.04.32.08.79,0,1-.48,1.27-1.21.84-2,1.5h-1.5v1c-.41.29-.99.64-1.5,1h-1.5v1c-.06.03.03.76-1,.5v1l-3,1v1l-2,.5h-1c.04-.49-.06-1.02,0-1.5.7-.14,1.67-.44,2-1.25.11-.26-.08-.6,0-.75.5-.94,2.06-2.5,3-3,.15-.08.49.11.75,0,.6-.25,9-8.64,9.24-9.25.09-.23-.06-.53,0-.75.22-.06.52.09.75,0l1.25-1.25v-.75c.29-.06.67.03,1,0-.26-1.04.48-.94.5-1h1c.03-.33-.06-.71,0-1,2.37-.49,3.92-4.16,6.24-5,.54-.19.16-1.04.25-1.5-.79-.8-4.5,2.5-5.74,2.5l-2.25,2c-.16.03-.34-.02-.5,0h-.75l-.75,1c-1.94.35-2.65,1.48-4.25,2.5-2.34,1.49-4.61,2.56-6.99,4-.5.3-1.32,1.3-2,1.5-.47.14-1.7.14-1.25-.75.19-.37,1.78-1.85,2.25-2.25,1.06-.9,5.79-3.95,6.24-4.75.77-1.36,3.93-3.41,5.74-4.75,2.83-2.09,6.29-4.33,8.99-6.5.41-.33,2.11-1.96,2.25-2.25.78-1.67-1.88.05-2.25.25-10.89,6.04-21.67,12.32-32.72,17.5h-1v1c-.32.04-.67-.02-1,0h-1v1c-.58.18-.82.71-1.5.5l-2,.5c-.12-.1.77-1.1,1-1.5.35-.6.48-.47.5-.5h.75l.75-.75v-.75c.22-.04.41.06.5-.25v-.75h2v-1s.37-.36.5-.5h1.5v-1c.16-.03.34.02.5,0h.75l.75-.75v-.75c.16-.03.34.02.5,0h1v-1c.57.09.45-.44.5-.5.93.11,1.45.02,2-.75v-.75c6.54-3.15,12.74-10.48,18.98-14v-1c.09-.09.51.13.75,0,.38-.21,1.04-1.31,1.25-1.75.32-.67-.15-.84-.75-.75-1.26.18-1.66.98-2.5,1.5-2.12,1.31-4.41,2.7-6.74,3.5v1c-8.9,4.02-17.26,8.43-25.22,13.5l-3.5,1-.25-1c.96.24,1.17-.59,1.75-1,1.36-.95,2.72-2.52,4.25-3v-1h1v-1c4.4-1.85,7.43-7.64,11.99-9v-1h.75l7.74-6.75c.05-1.95-2.17.39-2.75.75-2.13,1.35-4.33,2.66-6.49,4-2.59,1.61-5.41,3.07-7.99,4.5-.64.36-2.42,1.93-2.25.25l11.24-10.75h.75v-1c2.52-.86,4.39-4.25,6.99-5-.27-.87.44-1.24,1-1.5.25-.12.89.11,1.25,0,.33-.1,2.2-2.09,1.75-2.5l-3.5.5v1.5h-1.5v1l-2.5.5h-1v1c-1.2.36-1.89,1.52-3,1.5h-1v1c-.86.26-1.58,1.11-2.5,1l-2,.5v1c-.57.45-1.03.35-1.5.5-.89.28-1.85.35-2.5,1.25v.75c-.31.04-.68.02-1,0s-.67,0-1,0v-2h1v-1c1.67.06,2.11-2.51,4-2v-1h1v-1c1.52-.07,2.29-2.13,4-2v-1h1v-1c2.15-.62,4.35-2.88,5.99-4.75.49-.56,1.19-.83,1-1.75-1.28-.52-1.82.88-2.25,1-3.26.9-6.28,3.08-9.49,4-1.31.37-5.34,3.17-6.49,3.5-4.12,1.18-7.85,3.63-12.49,5-.27.08-.97.91-2.25,1.25-.83.22-1.12.67-1-.5.73-.51,1.56-1.28,2.25-1.75,5.43-3.7,11.94-7.41,17.73-11v-1c2.38-1.18,5.95-3.27,8.24-5,.59-.45,1.39-1.16,1.25-2-1.51-.64-2.29.87-2.75,1-1.29.36-1.72.92-2,1-2.56.74-4.78,1.77-6.99,3-4.11,2.28-8.27,4.02-12.49,6-2.14,1.01-4.78,2.26-7.24,3.25-.86.35-1.13.56-1-.5,1.05-.6,1.87-1.6,2.75-2.25,7.83-5.86,17.02-11.15,25.22-16.5v-1h2v-1h1v-1c1.07-.08,1.31-.67,2.5-1,.22-.06.52.09.75,0,.46-.18,1.61-1.64,1.25-2l-1.75-.5-.75,1.5h-3v1c-.49.03-1-.02-1.5,0h-1v1c-.49.03-1-.02-1.5,0h-1v1c-.81.17-2.27.66-3,1l-.75-.5-1.25.5v1c-.29.06-.67-.03-1,0h-1v1c-.49.03-1-.02-1.5,0h-1v1c-.33.02-.7-.05-1,0-.63.11-1.66.32-2.25.5-.31.1-.79.86-1.75.5v-1.5c.15-.05.35.05.5,0,.97-.32,1.43-.66,2.25-1,.27-.11.66.09.75,0v-1c1.79-.71,3.53-2.41,5.49-3,.25-.08.68.04,1,0l.5-1.5c.15-.06.37.06.5,0,.65-.31.47-.48.5-.5.31-.25,1.66-.75.75-1.5-.61.63-1.68.64-2.5,1-7.96,3.53-15.76,7.32-23.48,11l-7.99,4v-1l1.25-1c5.19-2.31,10.17-6.83,15.48-8.5-.25-1,1.75-2.15,2.5-2.5.25-.12.89.11,1.25,0,.6-.18,3.41-2.83,4-3,1.98-.57,2.85-1.88,4.75-2v-1h1v-1h-1v1c-1.55-.63-2.28.87-2.75,1-1.84.53-3.16,1.47-4.99,2-.44.13-.8,1.37-1.75,1-.04.32.07.75,0,1-1.21-.3-1.87.59-2.75,1-1.78.84-3.56,1.47-5.49,2-1.72.48-6.01,3.59-7.49,4-2.95.81-5.64,2.34-8.74,3h-1v1c-.73.07-3.46.75-4,1v-1c.06-.03.3-.87.75-1h2.25v-1c1.45-.3,2.4-1.27,4-1v-1c5.39-2.3,10.59-5.05,16.23-8,1.09-.57,2.33-1.47,3.5-2,.57-.26,1.95.2,1.75-1.5-1.11-.21-1.97.3-3,.5-.53.1-1.24-.12-1.75,0-.48.11-1.48,1.28-2.25,1v1c-.46.08-1.01-.05-1.5,0h-1v1c-.66.03-1.34-.02-2,0v1h-1.5l-.5-.75,2-1.5v-.75c.57-.19,1.43-.31,2-.5.2-.07.51.1.75,0,.51-.21.78-1.34,1.75-1v-1c.57-.21.83-.68,1.5-.5h1v-1c.32-.04.67.02,1,0v-1l4.99-2v-1c.32-.04.79.08,1,0l.25.5h.75v-1c.74-.34,1.49-1.18,2.25-1.5.27-.11.66.09.75,0v-1c.49-.05,1.04.08,1.5,0,.81-.14,1.25-.48,2-.5v-1l1-1.5c-.71.08-1.58-.12-2.25,0-1.99.37-5.19,1.93-7.49,2.5-2.8.7-5.2,1.74-7.99,2.5-3.25.89-6.77,1.91-9.99,2.5-1.95.35-2.17.77-3,1-.66.18-1.78-.16-2.5,0-.17.04-1.33.96-1.5,1-1.44.31-3.68-.22-5.24,0l2.25-1.5c8.1-1.6,15.21-5.86,22.98-8,.27-.08.72-.92,1-1,3.17-.91,5.93-2.4,8.99-3.5l1.75-2-2.75,1c-6.91.47-13.25,2.8-19.98,4-4.4.78-9.08.23-13.49,1-.19.03-.31.48-.5.5-.86.12-1.86-.08-2.75,0v-1h-1.5v-1c.79.26,1.71-.85,2.25-1,.67-.18,1.42-.35,2-.5,1.58-.41,3.17-.21,4.5-.5.17-.04,1.33-.96,1.5-1,1.81-.39,4.14-.6,5.99-1,.17-.04,1.33-.96,1.5-1,1.81-.39,4.14-.6,5.99-1,1.02-.22,3.97-1.78,4.99-2s2.45-.08,3.5-.5c.2-.08.29-.41.5-.5.46-.21,1.01-.05,1.25-1,.07-.27-.03-.68,0-1h-2.5v1c-.61,0-2.2.14-2.5,0-.03-.01.09-.41-.25-.5-1.03-.26-1.32.46-1.5.5-.51.1-1.19-.07-1.75,0v1c-.69.08-2.12-.18-2.5,0l-.25-.5h-.75v1c-.31.02-.72.06-1,0-.03,0,.09-.42-.25-.5-.48-.12-1.2.07-1.75,0v1c-.66.02-2.7.14-3,0-1.5-.7-.82-.17-1.75,0-.67.12-1.53-.08-2.25,0v1c-1.35.07-6.4-.28-6.99,0l-.25-.5h-.5l-.25.5c-.22-.08-.68.04-1,0l-.5-.25v-1.75c.96-.11,2.02.07,3,0h1.5v-1c.83-.02,1.67.01,2.5,0h1v-1c.83-.03,1.67.02,2.5,0,.66-.01,1.34,0,2,0v-1c.83-.02,1.67.01,2.5,0h1v-1c.57-.02,2.23-.12,2.5,0,1.32.62.52.17,1.25,0,.49-.12,1.2.07,1.75,0v-1c.98-.09,2.01.06,3,0h1v-1c1.05-.1,1.54-.47,1.75-.5,1.58-.26,3.49.57,3.75-2-.79-.14-.97.41-1.75.5s-5.96.13-6.24,0c-1.93-.91-1.63-.14-2.75,0-1.02.13-2.2-.09-3.25,0v1c-.65.03-2.17-.15-2.5,0l-.25-.5h-5.24v1c-.45.02-1.27-.11-1.5,0l-4.99-1.25,2.25-.75,1.75-1.5c.6-.06,3.24-.12,3.5,0,.03.01-.09.42.25.5,1.06.25,1.32-.46,1.5-.5.51-.11,1.19.07,1.75,0v-1c.51-.01,1.75-.11,2,0,.03.01-.09.42.25.5,1.26.31,2.03-.71,3.25-.5v-1c.5-.05,2.27-.11,2.5,0,.03.01-.09.41.25.5,1.03.26,1.32-.46,1.5-.5.51-.1,1.19.07,1.75,0v-1c1.54-.1,7.13-1.17,7.49-1,.03.01-.09.42.25.5.54.13,1.28-.86,2.25-.5v-1c.86-.17,4.28-1.1,4.5-1,.03.01-.09.42.25.5.73.18,1.43-.77,1.25-1.5h1v-1l-1.25-.5c-.2-.06-1.22.37-1.5.5-.36.17-.22.49-.25.5-.15.06-.85.06-1,0-.03,0,.09-.42-.25-.5-.48-.12-1.2.07-1.75,0v1c-3,.08-5.46-.19-8.24.5-.79.2-2.72.98-3.75.5-.03-.01.09-.42-.25-.5-.54-.13-1.28.86-2.25.5v1c-1.81.15-3.16.26-4.75.5-1.42.21-7.86.32-8.24.5l-1-.5v-.5h1v-1c.53,0,1.74-.12,2,0,1.2.57,2.85-.31,4.75-.5.97-.1,2.03.57,1.75-1,.8-.08,2.9-1.02,4-.5.03.01-.09.42.25.5.54.13,1.28-.86,2.25-.5v-1c2.41-.27,4.41-.9,6.49-1,1.35-.06,2.87-.29,4.25-.5.77-.12.98-.63,1.75-.5.16-.54-.34-1.39-.75-1.5-1.47-.39-4.31.28-5.99,0l-2.25,1.5c-.96.08-3.52-.23-4,0l-.25-.5h-.75v1c-.31.02-.73.06-1,0-.09-.02-.3-.88-1.5-.5v1c-.97.04-4.05-.21-4.5,0l-.25-.5h-2.25v1c-.49.02-1.01-.04-1.5,0v-1h-1v1c-3.4.24-6.84.52-10.49.5-.5,0-1,0-1.5,0-.33,0-.67,0-1,0-.58-.01-1.16,0-1.75,0-.77,0-1.98.46-1.75-.75l2.25-.75,1.25-1.5c.66-.06,3.73-.13,4,0,.03.01-.09.42.25.5,1.06.25,1.32-.46,1.5-.5.51-.11,1.19.07,1.75,0v-1c.57-.05,1.7.14,2,0l.25.5h.75v-1c.31-.02.73-.06,1,0,.09.02.3.88,1.5.5v-1c.57-.02,2.23-.12,2.5,0,.03.01-.09.41.25.5,1.03.26,1.32-.46,1.5-.5.51-.1,1.19.07,1.75,0v-1c.51-.01,1.75-.11,2,0,.03.01-.09.41.25.5.99.25,1.67-.82,2.75-.5v-1c.5-.05,2.27-.11,2.5,0,1.32.62.52.17,1.25,0,.49-.12,1.2.07,1.75,0v-1c.65-.05,1.34,0,2,0,.83-.01,1.67,0,2.5,0v-2c-.82-.26-1.12.68-1.75.5-1.99-.57-3.75-.93-5.99-1-.75-.03-2.44-.34-2.75.5-.48-.23-4.4.03-5.49,0v-1h-2.75l-.25.5c-.27-.13-1.45.02-2,0v-1h-2.25l-.25.5c-.45-.21-3.53.04-4.5,0v-1h-2.25l-.25.5c-.29-.06-.67.03-1,0v-1c-1.12-.39-1.42.46-1.5.5-.39.19-4.53.02-5.49,0v-1c-.55.07-1.26-.12-1.75,0-.34.08-.22.49-.25.5-.2.1-1.08.01-1.5,0v-1c-1.12-.39-1.42.46-1.5.5-.34.16-5.09.06-5.99,0l-2.5-1.5,3.25-.5,1.75-1c2.4-.09,5.52.33,7.74,0,.1-.01.86-.92,1.75-.5.08.04.38.89,1.5.5v-1c1.07-.04,6.59-.19,6.99,0,.03.01-.09.42.25.5.48.12,1.2-.07,1.75,0v-1c.43,0,1.29-.1,1.5,0,.03.01-.09.42.25.5.62.15,1.55-.1,2.25,0v-1c.87-.01,4.13-.17,4.5,0,.03.01-.09.42.25.5l7.24-1.5c.05-1.97-1.79-1.49-3.25-1.5l-.25.5c-1.82-.04-3.67.06-5.49,0v-1c-1.02-.12-2.29.17-3.25,0s-.24-.71-1.75,0c-1.17.55-5.67-.3-6.99-.5v-1.5c.55.03,2.25.12,2.5,0l.25.5c2.1-.09,4.21.33,5.99-.5l.25-.5c.15.06.85.06,1,0l.25.5h4.75v-1c.64.02,2.18-.15,2.5,0,.03.01-.09.42.25.5l1.25-1.25c-1.04-1.41-1.19-.4-1.5-.25-.28.13-3.79.06-4.5,0v-1h-.75l-.25.5c-.78-.37-2.95-.44-4-.5l-1.75-1.5c-2.21.15-4.04-.04-5.99-.5-4.5-1.06-9.41-1.86-13.99-3-.62-.15-1.41-.49-1.5-.5-1.17-.21-2.75.15-4,0-1.56-1.43-.16-.57.25-1.5,1.15.54,22.09-.01,25.47,0-.28,1.51.76.99,1.75,1,3.16.04,6.33.04,9.49,0,.98-.01,2.03.51,1.75-1,1.9.01,12.32-.31,12.99,0,.03.01-.09.42.25.5.42.1,1.02-.07,1.5,0l.75-1.25-.75-.75c-.48.07-1.08-.1-1.5,0-.34.08-.22.49-.25.5-.21.1-1.07,0-1.5,0v-1c-1.39.34-2.48-.81-3.75-.5-.34.08-.22.49-.25.5-.23.11-2.46.06-3,0v-1c-.96.36-1.44-.41-1.75-.5-1.19-.37-1.18.47-1.25.5-.21.1-1.07,0-1.5,0v-1c-.55-.07-1.26.12-1.75,0-.73-.17.07-.62-1.25,0-.19.09-1.6.06-2,0v-1c-.82.27-.98-.42-1.25-.5-1.19-.37-1.18.47-1.25.5-.2.09-1.09.02-1.5,0v-1c-.82.27-.98-.42-1.25-.5-1.19-.37-1.18.47-1.25.5-.19.09-1.09.02-1.5,0v-1h-1c-.98-.08-2.05.11-3,0v-1l-1.25-.5c-.81-.22-.7.48-.75.5-.19.09-1.6.06-2,0v-1c-.82.27-.98-.42-1.25-.5-1.19-.37-1.18.47-1.25.5-.17.08-1.15.05-1.5,0v-1l-1.75-.5c-.81-.22-.7.48-.75.5-.19.09-1.6.06-2,0v-.75c-.5-.75-1.36-.97-2.25-.75-.34.08-.22.49-.25.5-.29.06-.67-.01-1,0v-1h-1.5c-.82-.06-1.7.09-2.5,0l-.5-2c1.05.14,2,.8,3.25.5.34-.08.22-.49.25-.5.28-.13,3.78-.06,4.5,0v1c.56.07,1.24-.1,1.75,0,.19.04.3.44.5.5,1.19.37,1.18-.47,1.25-.5.3-.14,4.69-.07,5.49,0v1c.55.07,1.26-.12,1.75,0,.73.17-.07.62,1.25,0,.3-.14,5.16-.07,5.99,0v1h.75l.25-.5c.25.07.67-.03,1,0v1c1.12.39,1.42-.46,1.5-.5.32-.15,2.31,0,3,0-.28,1.53.76.96,1.75,1,1.31.05,1.92.41,2.5.5.61.09,2.51.28,2.75-.5.5.23,9.52.06,10.99,0,.33-.01.67,0,1,0v-1c-.33,0-.67.01-1,0-.66-.03-1.35.06-2,0v-1h-.75l-.25.5c-1.11-.44-2.76-.71-4-1v-1h-.75l-.25.5c-.38-.18-1.8.09-2.5,0v-1l-1.75-.5c-.81-.22-.7.48-.75.5-.21.1-2.03.06-2.5,0v-1c-.96.36-1.44-.41-1.75-.5-1.19-.37-1.18.47-1.25.5-.21.1-1.07,0-1.5,0v-1h-1.5c-1.67.19-2.99-.27-4.5-.5v-1h-.75l-.25.5c-.23-.11-1.05.02-1.5,0v-1h-1c-.66-.02-1.34.03-2,0v-1h-1l.5-1c.28.28,6.05-.26,7.24,0,.17.04,1.33.96,1.5,1,1.32.28,2.93.11,4.5.5,3.62.9,7.9,1.93,10.99,2.5l4.75,1-1.25-1.5h-.75v-1h-3.5v-1c-5.47-1.45-10.65-3.29-16.23-4.5-1.15-.25-2.12-1.1-4.25-1.5v-1c-1.04.17-1.53-.39-2.5-.5-.8-.09-1.68.07-2.5,0v-1l-4.75-1.5c-.81-.23-.7.48-.75.5-.19.07-.68,0-1,0v-1h-1v-1l1.25-.5c.6.81,1.74.45,2.75.5,5.28.24,9.78,1.62,14.73,2.5s9.83,1.07,14.49,2c3.55.71,7.45,1.42,10.99,2,.69.11,1.53-.07,2.25,0v-1.5c-.55-.07-1.26.12-1.75,0-4.35-1.03-9.15-3.2-13.49-4.5-3.55-1.07-7.45-1.91-10.99-3-6.53-2.01-13.18-4.2-19.73-6v-1.5c.55.07,1.26-.12,1.75,0,.73.17-.07.62,1.25,0,.29-.14,1.89,0,2.5,0v1c.7.09,1.61-.14,2.25,0,.7.16-.08.63,1.25,0,.29-.14,1.89,0,2.5,0v1c1.39-.01,2.7.88,4.25.5.34-.08.22-.5.25-.5.31-.05.67.01,1,0v1c1.39-.34,2.48.81,3.75.5.34-.08.22-.49.25-.5.29-.06.67.01,1,0l2.75,1.5c3.84-.58,13.28,2.66,15.73,1.5.39-.18,3.14.01,4,0-.28,1.51.77.99,1.75,1s2,0,3,0l.25-1c-.78.2-.82-.2-1.25-.5-.97-.68-1.9-1.52-3-2-1.46-.64-3.64-.82-4.99-2-.82-.22-.7.48-.75.5-.19.07-.68,0-1,0v-1h-1c-.49-.05-1.04.08-1.5,0v-1l-1.25-.5-.75.5c-.34-.14-.95-.29-1.5-.5v-1c-1.18.38-1.92-.7-2.75-1-.45-.16-1.72-.43-2.25-.5-.48-.06-1.01.03-1.5,0v-1h-1c-.5-.02-1,.03-1.5,0v-1h-1c-.5-.02-1,.03-1.5,0v-1h-1c-.5-.02-1,.03-1.5,0v-1h-1c-.33-.03-.71.06-1,0v-1l-1.25-.5-.75.5c-.32-.13-.99-.32-1.5-.5v-1c-.99.12-1.56-.33-2.5-.5-1.62-.3-2.61-.71-4-1v-1h-1c-1.48.11-2.94-1.01-4-1.5v-1c-.65-.05-1.36.08-2,0-.4-.05-.84.03-1.25,0l-4-1.5-1.75-1.5c.85.11,1.97-.17,2.75,0,.17.04,1.33.96,1.5,1,2.92.63,6,.85,8.99,1.5.17.04,1.33.96,1.5,1,1.71.37,3.71.51,5.49,1,3.65,1,7.39,2.54,10.99,3.5,2.31.62,4.57.98,6.99,1.5.17.04,1.33.96,1.5,1,1.89.41,4.3.57,6.24,1v1h2.5v-1c-.98.28-1.18-.79-2-1-.26-.07-.67.02-1,0v-1h-1c-1.2.3-1.98-.69-3-1v-1h-1c-1.2.3-1.98-.69-3-1v-1h-1c-1.2.3-1.98-.69-3-1v-1h-1c-.16-.16-1.56.37-1.5-.5-.15-1.05-.16-2,1.25-1.5.96.34,2.14,1.2,3,1.5.43.15,1.1-.26,1.5.5.41.03.84-.04,1.25,0,.49.05,1.01-.03,1.5,0v1h1c.5.02,1-.03,1.5,0v1h1c.65.05,1.36-.09,2,0v1l1.25.5c.81.23.7-.48.75-.5.18-.07.7-.02,1,0v1l1.25.5c.81.23.7-.48.75-.5.19-.07.68,0,1,0v1h1c.65.05,1.37-.08,2,0v1l1.25.5c.81.23.7-.48.75-.5.19-.07.68,0,1,0v1h1c.66.01,1.34-.02,2,0v1h1.5c.81.06,1.7-.1,2.5,0v1l1.25.5c.81.23.7-.48.75-.5.13-.06.34.05.5,0,.26-.07.68.04,1,0v-1h-1l-.5-1h-2v-1c-1.89,0-3.53-1.91-5.49-2.5v-1h-1c-.33-.02-.68.04-1,0v-1h-1c-1.2.3-1.98-.69-3-1v-1h-1c-1.2.3-1.98-.69-3-1v-1h-1c-1.2.3-1.98-.69-3-1v-1h-1c-3.77-.45-7.26-3.87-10.99-5v-1h-1c-1.2.3-1.98-.69-3-1v-1h-1c-1.2.3-1.98-.69-3-1v-1h-1c-2.1.1-3.95-1.88-5.99-2.5v-1h-2.5v-1c-.5-.02-1,.03-1.5,0v-1h-1c-1.2.3-1.98-.69-3-1v-1h-1c-.49-.05-1.04.08-1.5,0l-1.75-2c-1.46-.39-2.74-1.33-4-2-.56-.3-.8-.76-1.75-.5-.4-1.27.85-1.23,1.75-1,.59.15,2.25,1.29,3,1.5.41.03.84-.05,1.25,0,.49.06,1.01-.06,1.5,0l1.25,1.5c2.59.23,5.21,2.33,7.49,3,1.24.36,1.17-.48,1.25-.5.24-.07.69-.02,1,0v.75c.79,1.05,2.3.7,3.25,1.75l.75-.5c.14.09.54-.14.75,0,1.35.87.64.91,2.75,1v1h1c.49.05,1.04-.08,1.5,0v1c.82-.26.95.39,1.25.5.7.25,1.94.42,2.75.5,1.91.2,2.83.84,4.5,1v1h1c4.18.7,8.21,2.82,12.24,4,.2.06.31.45.5.5.89.22,2.02.02,2.25-1l-4.99-2v-1c-5.19-1.99-9.48-4.82-14.24-7.5-.61-.35-1.94-.65-2.5-1-.42-.27-1.68-1.61-1.25-2l2.75.5c7.58,3.59,15.97,7.22,23.98,9.5.55.16,1.35.16,2,.5,1.52-1.04-.5-1.23-.25-2.5-.33-.02-.68.04-1,0v-1h-1c-.16-.02-.34.03-.5,0v-.75l-.75-.75h-.5l-.25.5c-.17-.08-.69.05-1,0v-1l-3-1v-1c-.33-.02-.68.04-1,0v-1h-1c-.5,0-1.36-.29-1.75-.5s-.58-.7-1.25-1v-1c-1.09.22-2.46-1.69-3.25-2-.24-.1-.55.06-.75,0-1.32-.43-3.12-1.01-4-2v-1l-2-.5c-1.18.1-2.27-1.12-3-1.5v-1c-.97.34-1.24-.8-1.75-1-.21-.09-.5.04-.75,0-.98-.16-.96-.17-1.75-.5-.27-.11-.66.09-.75,0l-.5-1v-1h-1c-.33-.03-.71.06-1,0v-.75c-1.07-.76-2.07-1.94-3.5-1.75-.04-.12,0-.33,0-.5,0-.33,0-.67,0-1h3v1c.33.02.68-.04,1,0v1h1c.33.02.68-.04,1,0v1h1c1.2,0,2.35,1.15,3.5,1.5v1h1c.33.03.7-.06,1,0v1h.75l.25-.5c1.83.83,3.87,2.36,5.99,3v1h1c1.2-.3,1.98.69,3,1v1h1c1.11-.27,1.65.43,2.5,1,4.62,3.12,10.41,5.83,15.23,8.5,1.96,1.08,4.15,2.1,5.99,3,.65.32,1.96,1.34,2.5,1.5,2.05.6,1.39-1.68-.25-1.5v-1c-7.53-3.49-14.61-8.77-22.23-13-1.58-.88-3.2-1.54-4.75-2-.67-.2-1.39-.95-1.5-1v-1h-.75l-.25.5c-.21-.08-.68.04-1,0v-1l-3-1v-1c-2.45-.68-4.44-3.26-6.99-4l-.5-1v-1h-1c-.16-.02-.34.03-.5,0v-.75c-.51-1.06-1.56-.55-2-.75-.72-.34-1.87-1.65-3-1.5v-.75c-.12-.31-.29-.22-.5-.25v-.75l-.75-.75h-.75l-2-.5v-1c1.81-1.3,3.58,1.19,5.49,1.5.94.15,1.15.22,2,.5v1c1.06-.32,2.18,1.27,2.75,1.5.21.08.5-.04.75,0,.32.05.68-.04,1,0v1h.75l.25-.5c.21.08.68-.04,1,0v1c.33.02.68-.04,1,0v1h1c.33.01.67-.03,1,0l.75,1.5c1.55.33,2.57,1.14,4.25,1.5.15.03.33-.02.5,0v.75l.75.75h.75c.33.03.71-.06,1,0v1l2,.5c1.43-.22,1.63.72,3,1v1h1c.33.03.71-.06,1,0v.75c.52.94,1.15.58,1.75.75.35.1.42.78,1.75,1,.93.15,1.11.18,2,.5l.75,1.5.75-.5c1.04-.26.94.47,1,.5v1c.4.06.94-.1,1.25,0,.68.23,1.18.74,2.25,1,.72.18,1.21.26,2,.5v1h1c1.2-.3,1.98.69,3,1v1h1l3,1v1c1.04.03,2.03.67,2.75,1.5l1.75-.5c.47-.45-1.36-2.26-1.75-2.5s-1.43-.36-1.75-.5c-.98-.44-1.96-1.56-2.75-2-.24-.13-.66.09-.75,0v-1c-1.14.38-1.42-.47-1.5-.5.14-.84-.65-1.55-1.25-2-4.29-3.25-9.45-6.96-14.24-9.5v-1h-2v-1l-3-1-.5-1v-1h-1c-.98.28-1.18-.79-2-1v-1h-2.5v-.75c-.12-.31-.29-.22-.5-.25v-.75l-.75-.75h-.75c-.09-.09-.48.11-.75,0-1.99-.83-3.05-2.47-4.25-3v-1h-1l-2-.5v-1h-1c.22-1.84-1.39-1.21-2-1.5-.43-.2-.41-.26-1.25-.5-.44-.13-.8-1.37-1.75-1v-1c-2.02-.59-4.64-2.27-6.24-3.5-.72-.55-2.95-2.68-2.25-3.5l3,.5c-.44.81,3.44,3.91,3.75,4,3.85,1.1,8.85,4.45,12.49,6.5,4.83,2.72,9.15,5.28,13.99,8,3.63,2.04,7.3,3.83,10.99,6,.5.29,2.21,1.92,2.5,2,.47.13,2.79.31,2.25-.75s-2.96-2.38-3.5-3.75v-1h-1l-1-.5-.5-1c.17-1.6-.19-1.73-1.5-2-.29-.06-.67.03-1,0,0-1.71-2.74-2.9-3.5-4.25-.54-.97-1.18-1.16-2-2.25.2-1.55-.61-2.27-2-2.5-.21-.03-.38.06-.5-.25v-.75h-1v-1h-1v-1h-1v-1h-1v-1h-1v-1h-1v-1h-1v-1h-1c-.42-1.51-2.26-3.15-3.5-4.5.11-.93.02-1.45-.75-2h-.75c-.03-.21.06-.38-.25-.5h-.75v-1h-1v-1h-1v-1h-1c.54-1.68-1.47-2.21-2-3.25-.45-.88.79-.9,1.25-.75.49.16,1.16,1.46,1.25,1.5l.75,1h.75c-.07.51.22.41.5.5v.75c1.15.98,1.85,2.58,3.5,2.25.2.22.65.2,1,1,.07.17-.1.5,0,.75.3.73,1.26.86,2,.75l1,.5v1h1v1h1v1c.9-.24,1.58.76,2,1v.75c.55.77,1.07.86,2,.75l1,.5v1h1v1c1.26-.1,2.09,1.6,3,2v1h1v1h2v1h1v1h1v1l2,.5c-.3.79.47,1.3,1,1.5v1h2c-.06,1.6,2.06,1.84,3,3,.18.23.13,1.15,1.25,2,6.15,4.66,12.16,9.84,17.98,15l2.75,1c.79-.79-1.66-3-2.25-3.5-4.58-3.9-9.24-7.96-13.99-11.5-.96-.71-4.17-2.92-4.75-3.5-1.78-1.79-4.26-5.52-5.99-7.5h-1c-2.58-3.9-6.17-7.42-8.99-11.25-.77-1.05-2.37-1.58-2-3.25l2,.5c-.3,1.29.84,1.21,1.25,1.5,3.32,2.35,6.19,5.74,9.74,7.5v1c2.45.4,4.68,3.84,6.24,4.5.84.35,3.96,3.1,4.75,4,.1.11-.15.57,0,.75.79.94,1.91,2.07,3,2.5.93.37.89.17,1.5-.5.19-.71-2.11-3.49-2.75-3.75-.26-.11-.6.08-.75,0-.91-.48-2.12-1.5-2-2.5v-1h-1c-.06-.24-1.38-1.91-1.5-2v-.75l-.75-.75h-.75s-.25-.22-.5-.5c.33-1.63-1.15-2.23-2-3.25-.08-.1.08-.41,0-.5-.6-.7-1.47-1.82-2.5-1.75-.03-.21.06-.38-.25-.5h-.75v-1h-1v-2h-1s-.24-.21-.5-.5l-1-2.25-3.5-3.25c-.08-.15-.45-.95-.5-1v-.75l-.75-.75h-.75c-.21-.67-.42-.43-.5-.5.26-1.29-.31-1.48-1-2.25-3.3-3.68-6.31-7.63-8.99-11.5-.25-.35-.86-.69-1-1-.27-.57.18-1.02.75-.75.6.28,2.25,2.33,3,3s.96,1.27,2.25,1c.96.95,6.08,6.3,6.49,6.5v1h1c.07.08.35-.07.5,0v1.5h1.5l1,.5v1h1v1h1v1h1v1h1v1h1v.75c.12.31.29.22.5.25v.75l.75.75h.75c.14.44.06.36.5.5v.75c.54.35,1.3,1.57,1.75,1.75.22.09.52-.05.75,0,.29.06.67-.03,1,0v1c.09.09.51-.13.75,0,1.9,1.06,4.49,5.24,6.49,6.5.14.09.77-.05,1,.5l.75-1.5c2.34.04,5.37,2.95,7.24,4.5.71.59,1.3,1.39,2,2l-.25-2.25c-.6-.8-3.37-3.06-3.5-3.5s.12-1.08,0-1.5c-.38-1.37-2.39-2.55-3.25-3.75-.39-.55-1.34-2.63,0-2,1.01.48,1.74,2.64,3.25,2.5.04.06.94.96,1,1v.75c.41.27.9,1.11,1.25,1.25.26.11.6-.08.75,0,1.09.58,5.77,4.58,5.99,5,1.19,2.27,2.96,2.36,4.75,4.5l.75-.5c.41-.2,1.76.68,2,1,.48.64-.23.45,1.25,1.5.81.58,1.54,1.6,2.75,1.5.06-1.01.15-1.4-.5-2.25-.28-.36-2.04-2.17-2.25-2.25-.23-.09-.53.06-.75,0-.02-.25.02-.5,0-.75-1.19-1.14-2.3-2.37-3.5-3.5-.6-.57-1.02-1.42-2-1.25-.04-.06-.94-.97-1-1v-1h-2v-2h-1c-.13-.29-1.29-1.15-1-2h-1l-.5-1c.11-.93.02-1.45-.75-2h-.75c-1.28-2.27-4.09-4.01-4.99-7h-1c-.43-1.56-1.8-2.51-2.5-4-.12-.25.11-.89,0-1.25l-1.5-.75c-.34-.52-1.12-1.19-1.5-2-.12-.25.11-.89,0-1.25l-1.5-.75c-.44-.8-1.16-1.11-1-2h-1v-1h-1l-.5-2v-.75l-.75-.75h-.75c-.04-.22.06-.41-.25-.5-1.2-.23-.88-1.49-2.25-2.5.1-.84.03-1.55-.75-2-.22-.13-.6.08-.75,0-.03-.02.04-.15-.5-.5.47-1.75-1.59-1.99-1.5-3.5.62.42.88.39,1.5.5.16.03.34-.02.5,0v.75l1.25,1.25h1.75v2h1v1h1c.6,1.75,3.75,5.02,5.49,5.5.45,1.63,2.86,4.05,4.5,4.5.41,1.51.49,1.59,2,2,.29,1.08.61,2.06,2,2v1h1c.07.08.35-.07.5,0v1.5h1.5l1,.5v1c1.03-.1,2.1.97,2,2h1v1h1v1h1v1h1v1c.59,0,1.81.68,2.25,1,1.15.84,3.05,3.55,4,4,.57.27,1.02-.18.75-.75-.37-.79-1.13-1.42-1.5-2-3.56-5.62-6.93-11.59-10.49-17.5-3.3-5.48-6.42-10.89-9.49-16.5-.19-.35-.91-.73-1-1-.65-2.02,1.32-1.22,2,0,.37.67,1.65,1.99,2.5,3,3.82,4.58,7.96,8.86,10.99,13.75h1c8.41,11.46,18.86,22.89,25.97,35.25.16.27.36,1.13.5,1.5.2.54,1.04.16,1.5.25v-2h-1c.34-1.5-.42-2.12-1-3.25-4.29-8.3-10.01-16.65-14.98-24.5-.67-1.05-3-5.03-3.5-5.25l-1-3c-.33-.02-.68.04-1,0-.08-.46.05-1.01,0-1.5h-1c.16-1.87-1.44-3.23-2-4.75l-1.5-1.25c-.1-.45.04-1.75-.5-2v-1.5h1.5s.47.49.5.5c-.29,1.33.37,1.47,1,2.25,1.02,1.26,2.6,2.82,3,4.25h1l1,1c-.11.93-.02,1.45.75,2h.75c.16.37.34.63.5,1,.07.18-.1.5,0,.75.15.38,1.43,1.68,1.75,2.25h.75c.03.06.23.02.5,1,.31,1.16.29,1.29,1.5,2,.12.07.35-.06.5,0v1.5h1c.03.16-.02.34,0,.5v.75l.75.75h.75c.03.21-.06.38.25.5h.75l.5,1c-.34,1.36.45,1.47,1,2.25.1.14.02.83.75,1.25.22.13.6-.09.75,0,.59.33,1.04,1.04,1.5,1.5v1.5h1s.19-.16.5.5c.08.17-.11.51,0,.75.18.37.96,1.67,1.25,1.75l1.25-.5c-.41,1.56,1.26,1.81,1,3.25l1.5,1.25c.23,1.01.68,1.83.5,3v1h1c.66,2.16,1.58,4.28,2.5,6.25.82,1.75,1.26,3.41,2,5,.97,2.08,2.09,4.09,2.5,6.25h1l-.5,1.5c1.17-.35,2.76,1.57,2.5-.5l-1.5-.25c-.33-.48.5-.83.5-1,0-.16-.39-2.48-.5-3-.09-.43-1.26-2.35-1.5-3-2.94-7.95-5.78-16.12-8.49-23.75v-1h-1c-.09-2.21-.24-1.44-1-2.75-.13-.22.08-.59,0-.75l.5-.75-.5-1.25h-1c-.86-3.48-2.29-5.97-3-9.5-.55-2.76-3.3-9.7-4.5-12.25-.66-1.42-1.24-2.5-1.5-4l-2-2.25c-.02-.3-.07-.82,0-1,0-.03.42.09.5-.25.16-.65-1.65-1.81-1-3.25h-1c-.13-1.23-.01-1,1-1,.3,1.83,2.63,3.63,3,5.75l1.5,1.25c.06.29-.03.67,0,1v1h1c.04.32-.02.67,0,1v1h1c.02.33-.04.68,0,1,.12.86.5,1.22.5,2h1l.5,2v1h1c.02.33-.05.7,0,1,.16.92.37.89.5,1.25.18.49-.21,1.25.75,1.75h.75c.4,1.24.7,2.21,1,3.5.05.21-.05.49,0,.75.04.2.88.82.5,1.75h1c.06.3-.04.68,0,1,.16,1.15.77,1.54,1,2.25.1.31-.06.85,0,1.25h1c.2.66.77,1.05.5,2v1h1c.04.32-.02.67,0,1v1h1c.04.41-.08.9,0,1.25.04.18.41.29.5.5.11.27-.09.66,0,.75v1h1c.24.79.32,1.28.5,2,.05.22-.08.5,0,.75.17.57,1.25,1.44,1,2.25h1c.06.29-.03.67,0,1v1h1c.35,1.67,1.56,2.82,1.5,4.5v1h1c.02.33-.03.67,0,1,.08.89-.18,1.4.75,2h.75c.05.31-.06.7,0,1,.18.93.62,1.51.5,2.5h1c.03.16-.02.34,0,.5.23,1.79,1.2,3.06,2,4.75.65,1.38,1.11,3.65,2,5,.48.73,1.72,1.13,1.5,2.25l1-.25-.5-3c-.95-2.28-2.24-4.72-3-7-.1-.31.06-.85,0-1.25-.32.03-.73-.07-1,0-.2-1.1-.63-2.19-1-3.25-1.26-3.63-2.5-7.34-3.5-11-1.4-5.15-4.11-11.36-5.99-16.5-.6-1.64-1.19-3.29-1-5.25h-1v-3l.5-1,2,2.25c7.16,16.25,13.96,32.44,21.48,48.5,1.36,2.91,2.61,5.54,4,8.5.34.72.79,2.17,1,3,.04.17.37.29.5.5l1-.5c.14-.5-.4-.75-.5-1.5-.39-2.93-1.13-3.96-2-6.5-1.37-4-2.41-7.76-4-11.75v-1h-1c-.03-.49.02-1,0-1.5v-1h-1c-.03-.66.07-1.37,0-2-.11-.97-.67-1.46-.5-2.5h-1c-.16-.69-.44-1.3-.5-2l.5-.75c-.67-.79-1.14-1.73-1-2.75h-1c-.18-.54-.31-1.49-.5-2l.5-.75-.5-1.25h1l1.5,1c.75,3.37,3.14,6.44,4.5,9.75.3.73.69,1.7,1,2.5,1.43,3.74,2.26,8.42,4.5,12,.25.4,1.01,1.09,1.5,1.25-.13-.82.19-2.04,0-2.75-.08-.27-.92-.73-1-1-.53-1.94-.79-3.54-1.5-5.5-.89-2.45-2-4.99-3-7.5-.28-.69-.38-2-.5-2.25l.5-.75-.5-1.25h-1c-.39-1.75-1.25-2.59-1-4.5v-1h-1c-.3-1.45-1.27-2.4-1-4v-1h-1c-.04-.32.07-.75,0-1l.5-.25v-.75h-1c-.23-.77-.33-1.21-.5-2-.18-.83-.26-1.92-.5-2.75-.13-.46-.97-.38-1-2-.02-1,.03-.78,1-.75.25,1.39.96,2.77,2,3.75,0,1.56,1.72,2.77,2,4.5l2,2.25c.07.16.34.68.5,1l-.5.25v.75h1c.42.85,1.05,2.13,1.5,3l-.5.25v.75h1c.73,1.35,2.58,3.08,2.5,5h1c.05.65-.09,1.37,0,2,.07.54.26,1.32.5,1.75.39.71,1.41.87,1,2.25h1c.39.94.61.93,1,2.5.05.22-.08.5,0,.75.17.57,1.25,1.44,1,2.25h1c.05.32-.05.68,0,1,.17,1.2.92,1.87,1,3h1c.06.3-.05.69,0,1,.13.84.49,1.23.5,2h1c.58.59.8,2.21,1,2.5l-.5.75c.81.84.83,2.06,1.75,2.75h.75c.06.48-.07,1.02,0,1.5.13.96.65,1.47.5,2.5h1l1,2v2.5h1l-.5.75,1,.25-.5,1.25c1.32.75.76,1.62,1,2.5.03.12.71,1.29,1,2,.13.32.76.43.5,1.25h1.5c-.07-.55.11-1.25,0-1.75-.04-.18-.94-1.29-1-1.5-.21-.78-.23-2.12-.5-3-1.28-4.12-3.17-8.6-3.5-13l-1.5-1.25c.01-.33-.07-.75,0-1,0-.03.41.09.5-.25.25-.99-.63-1.36-.5-2.25h-1c-.05-.34-.08-1.33,0-1.5.01-.03.42.09.5-.25v-.5l-1.5-4.75h-1c-.02-.3-.07-.82,0-1,0-.03.42.09.5-.25.13-.54-.86-1.28-.5-2.25h-1c0-.32-.07-.81,0-1,0-.03.42.09.5-.25l-.5-1.75h-1c-.02-.3-.07-.82,0-1,0-.03.42.09.5-.25l-.5-1.75h-1c-.02-.3-.07-.82,0-1,0-.03.42.09.5-.25v-.5c-2.07-4.7-2.51-9.91-4-15l-1.5-2.25c.01-.33-.07-.75,0-1,0-.03.41.09.5-.25.28-1.1-1.53-3.41-1-5l-1.5-1.25c-.02-.41-.09-1.3,0-1.5.62-1.32.17-.52,0-1.25-.12-.49.07-1.2,0-1.75l2,.5c.02.3.07.82,0,1,0,.03-.42-.09-.5.25l1.75,3.75h.75c.02.3.07.82,0,1,0,.03-.42-.09-.5.25l2,5.5,2,2.75c.05.31-.04.68,0,1,.2,1.65.65,1.68,1,2.75.1.31-.06.85,0,1.25h1c.03.33-.03.67,0,1,.04.41-.03.84,0,1.25l1.5,3.25h1c.02.3.07.82,0,1,0,.03-.42-.09-.5.25v.5c.84,1.48,1.67,2.97,2,4.5l1.5,1.25c.15.61.41,1.52.5,2,.11.61-.07,1.36,0,2h1c.87,2.44,1.78,4.59,2.5,7.25.11.41,1.34.79,1,1.75l1-.25c.39-.91-.88-1.97-1-2.5-.19-.86.19-2.14,0-3-.04-.17-.96-1.33-1-1.5-.65-3.02-.73-6.42-1.5-9.5-1.11-4.45-1.89-9.05-3-13.5-.72-2.9-1.28-6.1-2-9-.28-1.13-.41-2.02-.5-3.25-.07-.99.05-2.01,0-3,.2-.25,1.32.87,1,1.5h1c.04.32-.02.67,0,1,.06.82-.04,1.67,0,2.5h1c0,.32.07.81,0,1,0,.03-.42-.09-.5.25l.5,1.75h1c.12.74.19,1.87.5,2.5l-.5.25v.75h.75l.25.5c-.07.13.07.38,0,.5-.01.02-.42-.09-.5.25l.5,2.25h1c.4,3.79,1.65,7.61,2.5,11.25,1.18,5.07.75,10.96,2,16,.71,2.87.47,6.02,1,9,.69,3.87,1.82,7.69,1.5,12l1,4.75c1.38.14,1.77-1.11,1.5-2.25-.54-2.3-.65-5.15-1-7.5-.64-4.25-.36-8.75-1-13-1.01-6.72-.99-13.78-2-20.5-.28-1.84-.55-4.19-1-6-.65-2.6-.47-5.33-1-8-1.19-5.93-1.55-12.18-3-18-.72-2.91-.75-6.08-1.5-9-.07-.27-.96-1.79-1-2-.12-.67.08-1.53,0-2.25h1.5c.09.7-.14,1.61,0,2.25.36,1.66,2.09,4.22,2.5,6s.53,4.31,1,6c.08.27.92.73,1,1,.28,1,.03,3.1.5,4.25l-.5.5h1c.1.62-.06,1.35,0,2v1h1c.02.49.11,1.77,0,2-.01.03-.42-.09-.5.25-.13.54.86,1.28.5,2.25h1c.09.69-.18,2.12,0,2.5l-.5.25v.75h1c.25.86.93,2.57.5,3.5-.01.03-.42-.09-.5.25v.5l1.5.75c.06.46-.12,1.24,0,1.5l-.5.25v.75h1c.32,1.47.73,2.75.5,4.5-.05.39-.22.51-.5.75l1.5.75c.02.55-.13,1.73,0,2l-.5.25v.75h1c.17.77.42,3.33.5,3.5l-.5.75.5.5-.5.5,1.5.75c.09.58-.16,1.66,0,2l-.5.25v.75h1c.19.85.87,2.7.5,3.5-.01.03-.42-.09-.5.25l1,2-.5.75h1c-.01.33.07.75,0,1,0,.03-.42-.09-.5.25v1c.76.23.11,2.31,1.25,1.75.39-.19.82-.96,1.25-1.25v-.5c-.39-.41-.82-.67-1-1.25-.04-.13.01-.33,0-.5h1v-3.75l-.5-.25c.11-.23-.02-1.05,0-1.5h1v-4.25l-.5-.25c.09-14.66-.12-29.34,0-44,1.51.28.99-.77,1-1.75.02-1.5,0-3,0-4.5,0-.78.36-2.42-.5-2.75.06-.15.06-.85,0-1l1-2.25c0-2,.01-4,0-6,0-.78.36-2.42-.5-2.75.18-.39-.01-3.14,0-4ZM285.71,79c-.09-.09.13-.51,0-.75-.7-1.25-3.48-3.58-4.5-5-.09-.12-.13-1.07-.75-1.25-.26-.08-1.25-.18-1.25.25-.18,1.48.87,1.54,1,2,1.28,4.44,3.62,8.71,4.99,13,.57,1.79.92,4.15,1.5,6,1.93,6.13,2.69,14.77,1.5,21.5-.15.86-.39,1.84-.5,2.5-.13.76.15,1.78,0,2.5-.08.35-.74,1.6-1,2.5-.08.28-.92.72-1,1-.09.31.09.69,0,1-.34,1.2-4.96,3.92-6.24,4.75-3.09,2-2.04,4.26-3.75,7.25-.16.29-.86,1.31-1,1.5-3.32,4.44-8.17,6.1-12.74,8.25-2.92-.53-4.23,2.07-5.74,3.75-4.64,5.16-9.72,9.64-15.23,13.25-.48.32-2.24,1.93-2.5,2-.85.23-2.45-.13-3.5,0-.18.02-.31.46-.5.5-.8.15-2.05.15-2.5-.5-2.01-.42-2.66-3.32-2.25-5.25.18-.84,1.78-3.2,2-4,.37-1.36.22-3.21.5-4.5.39-1.81,3.45-4.73,1.5-7v-.5c1.08-1.05,1.37-4.15,1-5.5-.08-.27-.92-.73-1-1-.57-2.08.5-4.84,0-7-.33-1.4.84-2.61,1-3.5.39-2.19.06-8.54-.5-10.5-.2-.72-1.08-2.73-1.5-3.5-.32-.59-1.3-.78-1-1.75l-2-.5-1,4.75-3.5,7.75h-2.5l-1.75,3.5-2.25-1c.19,1.65-1.41,2.69-1,4.5-.57.68-.96.06-1-.75s.12-1.77,0-2.5c-.03-.19-.77-.45-.5-1.25h-1.5c0,1.3-1.49,2.36-2,3.25-.42.73-.88,2-1,2.75-1.63-.29-2.25.34-3.25,1.5-.68-.83-1.91-1.38-1.75-2.5h-1l-.75,1.5-1.25-2c-1.73-.25-1.26,2.25-3,2l-1.75-3-2,.5c-.53-.14-1.06-2.02-2-2.5s-.74.83-.75,1.25l-.25,3.25c-.58-.48-.83-1.14-1.25-1.75-1.18-1.73-2.33-4.86-4.5-5.25v-1h-1.25l-1.5,1c-.21-.27-.58-.48-.75-.75-.14-.22-.36-1.29-.5-1.5-.44-.67-1-1.25-1.5-2-.66-.99-2-2.07-2-3.25l-3,1v-1h-1v-1h-1c.41-.79-1.55-2.49-2-2,.1.87-.15,1.93,0,2.75s1.18,2.96,1.5,4c.25.83-1.42,3.83,0,5.25h-1c.07.72-.11,1.56,0,2.25.17,1.02.86,2.61,1.25,3.75.24.71.34,1.26.25,2l-3.5-1c.07.72-.11,1.56,0,2.25.39,2.4,2.08,3.46,1.5,6-.43,1.87.8,1.93,1.5,3,.27.41.36,1.59,1,2l-1.5.25c-.14,1.07.12,1.89.5,2.75,1.8,4.07,3.92,6.65,4.99,11,.05.2.47.31.5.5v4.5l-.75.75h-5.49c-3.11-1.43-6.58-2.84-9.49-5-1.1-.82-1.62-2.4-3.25-2-1.81-3.65-6.15-5.96-8.99-9.25-.83-.96-1.3-1.93-2.75-2.75-2.17-1.24-4.76-1.02-6.99-2-2.45-1.07-6.58-5.42-8.24-7.75-1.25-1.75-2.38-5.01-4.25-6.25-.2-.14-1.3-.37-1.5-.5-6.54-4.35-11.78-11.14-13.74-18.75-.32-1.23-1.66-8.29-1.5-9,.62-2.67.26-4.32.5-7,.02-.18.48-.31.5-.5.21-1.64.07-2.85.5-4.5.63-2.45,1.89-4.99,3-7.5.92-.79,1.63-1.94,1.5-3.25-.49-.54-2.6,1.81-3,2.25-8.17,9.23-14.84,18.45-21.98,28.5-6.58,9.26-13.7,19.32-18.98,29.5-3.07,5.91-5.95,13.32-7.49,19.5-.69,2.77-1.47,5.75-2,8.5s-.5,5.7-1,8.5c-.59,3.33-1.29,7.64-1.5,11-.47,7.62-.1,16.68,1.5,23.5,1.24,5.28,3.01,10.96,4.99,16.5,2.29,6.39,5.61,12.94,7.49,19.5.29,1,2.71,4.5,3,5.5,1.33,4.63,4.67,9.59,6.99,14,3.87,7.34,8.81,14.28,13.49,21.5,6.43,9.93,13.72,19.98,21.48,29,1.08,1.26,7.83,7.93,7.99,8.5.17.6-.19,1.23.75,1.75h1.25c-.72-.79-.32-1.59-.5-2.25-.08-.28-1.92-2.23-2-2.5-1.08-3.95-3.57-7.58-5.49-11.5s-4.39-8.92-5.99-13c-1.34-3.42-2.69-8.04-3.5-11.5-.15-.66-.48-1.42-.5-1.5-.16-.87-.19-6.82,0-7.5.12-.42,1.45-.89,1-2,.46-.26,2.08-1.7,2.25-1.75.36-.1,2.64-.1,3,0,.27.08.72.92,1,1,.31.09.69-.09,1,0,.46.13,5.92,5.84,6.74,6.75,2.47,2.72,4.7,5.43,6.99,8l4.99,4.75c-.18-1.81.26-4.01,0-5.75-.03-.19-.46-.31-.5-.5-.79-3.96-.9-8.5-1.5-12.5-.31-2.08.74-4.62,1-6.5.13-.93-.18-2.16,0-3,.08-.36,1.17-1.41,1-2,1.25-1.44,2.76-2.68,4.75-2.25.18.04,1.19.85,1.5,1,.61.29,1.68.5,2.5,1,4.31,2.63,5.87,6.46,8.24,10.75,2.11,3.82,4.69,8.06,6.99,12,.35.6,1.28.78,1,1.75h1.25l.75-.75v-17c.49-.31,1.4-1.65,1.75-1.75.43-.12,3.01-.11,3.5,0,.52.11,3.43,1.65,4,2,3.16,1.93,5.53,4.87,7.74,7.75,4.63,6.04,8.42,12.85,11.99,19.5,1.92,3.59,3.66,7.16,5.49,11,1.4,2.93,2.94,5.76,4.5,9,.33.69.77,2.19,1,3,.12.41,1.34.78,1,1.75l1-.25c.26-3.02-.36-6.56,0-9.5.02-.18.47-.31.5-.5.61-3.46.3-7.09,1-10.5.52-2.53,1.53-5.95,2.5-8.5,1.57-4.14,3.77-8.07,5.99-12,3.04-3.28,5.7-7.77,9.24-10.75.54-.45,1.93-.99,2.5-2,3.19-1.45,5.9-2.94,9.49-2.5.18.02.31.47.5.5.61.11,1.47-.15,2,0,.23.06.66.77,1,1,.12.08.4-.08.5,0,1.48,1.08,2.59,2.6,3.25,4.25.08.21.46.32.5.5.16.71-.13,1.74,0,2.5.03.18.43.29.5.5.29.92-.65,1.38-.5,2.25,2.41.27,1.65-.97,2-2.25.25-.91,1.84-3.46,2-4,1.35-4.7,3.65-6.32,5.99-10l4.25-2.25c1.24-.29,1.65.42,2,.5.44.11,1.08-.11,1.5,0,.22.06,1.16.8,1.5,1,1.22.72,2.8,1.95,3.75,3.25.08.1-.08.38,0,.5.23.34.93.77,1,1,.09.33-.12.75,0,1,.15.32.96,1.32,1,1.5.26,1.15.2,7.67,0,9-.45,3.08-2.63,7.41-4,10.5-.4.91-.63,1.73-.5,2.75l1-1c1.35.25,1.56-1.13,2-1.75,2.2-3.15,4.59-6.58,6.99-9.5.92-1.12,2.53-2.85,3.25-3.25.81-.45,2.34-2.19,3.5-3,.62-.43,1.2-1.12,2-1.5l2.5-.5,3,1c.37.8,2.08,1.16,2.25,1.75.09.33-.11.75,0,1,.14.31.96,1.32,1,1.5.15.71-.12,1.73,0,2.5.03.18.45.3.5.5.29,1.24-.47,1.8-.5,2-.31,2.15-.19,3.75-1,6s-2.08,4.86-3,7c-4.4,10.31-10.28,19.93-14.49,29.75h-1c-1.22,3.44-4.16,6.58-5.49,10.25-.56,1.05-1.75,1.87-1.5,3.25.23.23,1.66-.51,2-.75,2.05-1.44,4.72-4.86,6.74-6.75,6.26-5.85,11.96-13.02,16.73-19.75s9.86-13.27,14.49-20.5,9.25-13.92,13.49-21c2.46-4.12,4.14-8.09,5.99-12,2.52-5.3,4.53-9.14,5.99-14.5.05-.19.77-1.19,1-1.5l-.5-1.75h1c.3-1.77.57-3.53,1-5.25.53-2.13.61-4.28,1-6.5.85-4.8.85-10.86.5-15.5-.4-5.36.06-10.67-.5-16-.43-4.14-1.18-8.92-2-13-.88-4.39-1.16-9.08-2-13.5-.92-4.84-2.21-9.8-3.5-14.5-.27-.99-.89-2.49-1-3-.71-3.29-1.35-5-2.5-8-3.75-9.82-8.12-20.25-14.49-29-2.97-4.08-5.79-8.47-8.99-12.5-2.98-3.75-6.39-7.14-8.99-10.5-3.41-4.41-7.24-8-10.99-11.75ZM128.87,78c-.57.51,2.52,3.29,2,4.25l3,3.75-.5-3.25-2.5-5c.05-.41-.79-.33-1-.25l-.25-.5h-.75v1ZM328.16,105h-1v1h1v-1ZM77.92,271h-1v1h1v-1ZM101.9,306v-1h-.5v1h.5ZM282.21,345l-2,1,1,.25.5,2.25h2.5l-1-1v-1h-1.5l.5-1.5ZM284.21,350h-1v.5h1v-.5Z"/>
  <rect class="cls-1" x="20.48" y="226" width="1" height=".5"/>
  <path class="cls-1" d="M166.33,33c-1-.27-1.12-1.06-1-2,1,.27,1.12,1.06,1,2Z"/>
  <path class="cls-1" d="M99.65,24c.32,0,.32.5,0,.5s-.32-.5,0-.5Z"/>
  <polygon class="cls-1" points="60.94 297.5 60.44 297.25 60.69 297 60.94 297.5"/>
  <path class="cls-1" d="M198.8,147h1c-.1,1.42,2,1.71.25,3-.94.18-1.66-.21-2.5-.5-3.58-1.26-8.45-4.82-9.74-8.5h-1l-.5-3c.7.09,1.61-.14,2.25,0,1.67.37,9.34,6.63,10.24,8.25.13.24-.09.66,0,.75Z"/>
  <path class="cls-1" d="M223.77,140l-1,2.75c-1.54,1.58-3,3.17-4.75,4.25-2.05,1.26-3.94,1.97-6.24,2.5l1-2.75c2.2-2.74,5.14-3.57,7.74-5.75l3.25-1Z"/>
</svg>